<svg width="368" height="221" viewBox="0 0 368 221" fill="none" xmlns="http://www.w3.org/2000/svg">
<path d="M289.914 23.8044H263.997V91.6453H289.914V23.8044Z" fill="#C6C6CC"/>
<path d="M289.919 23.8044H276.958V91.6453H289.919V23.8044Z" fill="#C3C4C4"/>
<path d="M276.115 15.7407H266.961V23.8043H276.115V15.7407Z" fill="#C6C6CC"/>
<path d="M276.11 15.7407H273.929V23.8043H276.11V15.7407Z" fill="#C3C4C4"/>
<path d="M290.677 23.335H261.841V23.8045H290.677V23.335Z" fill="#C3C4C4"/>
<path d="M271.313 27.3186H269.117V31.9437H271.313V27.3186Z" fill="#FEFEFF"/>
<path d="M276.958 33.7614C276.958 33.8119 274.055 33.8523 270.48 33.8523C266.905 33.8523 263.997 33.8119 263.997 33.7614C263.997 33.7109 266.9 33.6755 270.48 33.6755C274.06 33.6755 276.958 33.7159 276.958 33.7614Z" fill="#C3C4C4"/>
<path d="M284.386 27.3186H282.189V31.9437H284.386V27.3186Z" fill="#F8F8FF"/>
<path d="M290.03 33.7614C290.03 33.8119 287.127 33.8523 283.552 33.8523C279.978 33.8523 277.069 33.8119 277.069 33.7614C277.069 33.7109 279.972 33.6755 283.552 33.6755C287.132 33.6755 290.03 33.7159 290.03 33.7614Z" fill="#C6C6CC"/>
<path d="M284.386 36.5029H282.189V41.128H284.386V36.5029Z" fill="#F8F8FF"/>
<path d="M290.03 42.9459C290.03 42.9964 287.127 43.0368 283.552 43.0368C279.978 43.0368 277.069 42.9964 277.069 42.9459C277.069 42.8955 279.972 42.8601 283.552 42.8601C287.132 42.8601 290.03 42.9005 290.03 42.9459Z" fill="#C6C6CC"/>
<path d="M284.386 45.9653H282.189V50.5904H284.386V45.9653Z" fill="#F8F8FF"/>
<path d="M290.03 52.4081C290.03 52.4586 287.127 52.499 283.552 52.499C279.978 52.499 277.069 52.4586 277.069 52.4081C277.069 52.3576 279.972 52.3223 283.552 52.3223C287.132 52.3223 290.03 52.3576 290.03 52.4081Z" fill="#C6C6CC"/>
<path d="M284.386 55.4275H282.189V60.0525H284.386V55.4275Z" fill="#F8F8FF"/>
<path d="M290.03 61.8905C290.03 61.941 287.127 61.9814 283.552 61.9814C279.978 61.9814 277.069 61.941 277.069 61.8905C277.069 61.84 279.972 61.8047 283.552 61.8047C287.132 61.8047 290.03 61.8198 290.03 61.8905Z" fill="#C6C6CC"/>
<path d="M284.386 64.6221H282.189V69.2471H284.386V64.6221Z" fill="#F8F8FF"/>
<path d="M290.03 71.0597C290.03 71.1102 287.127 71.1506 283.552 71.1506C279.978 71.1506 277.069 71.1102 277.069 71.0597C277.069 71.0092 279.972 70.9739 283.552 70.9739C287.132 70.9739 290.03 71.0143 290.03 71.0597Z" fill="#C6C6CC"/>
<path d="M284.386 73.8469H282.189V78.472H284.386V73.8469Z" fill="#F8F8FF"/>
<path d="M284.386 83.198H282.189V87.8231H284.386V83.198Z" fill="#F8F8FF"/>
<path d="M290.03 80.2897C290.03 80.3402 287.127 80.3806 283.552 80.3806C279.978 80.3806 277.069 80.3402 277.069 80.2897C277.069 80.2392 279.972 80.2039 283.552 80.2039C287.132 80.2039 290.03 80.2392 290.03 80.2897Z" fill="#C6C6CC"/>
<path d="M271.313 36.6445H269.117V41.2696H271.313V36.6445Z" fill="#FEFEFF"/>
<path d="M276.958 43.0872C276.958 43.1377 274.055 43.1731 270.48 43.1731C266.905 43.1731 263.997 43.1377 263.997 43.0872C263.997 43.0367 266.9 42.9963 270.48 42.9963C274.06 42.9963 276.958 43.0367 276.958 43.0872Z" fill="#C3C4C4"/>
<path d="M271.313 45.9702H269.117V50.5953H271.313V45.9702Z" fill="#FEFEFF"/>
<path d="M276.958 52.4131C276.958 52.4586 274.055 52.499 270.48 52.499C266.905 52.499 263.997 52.4586 263.997 52.4131C263.997 52.3677 266.9 52.3223 270.48 52.3223C274.06 52.3223 276.958 52.3627 276.958 52.4131Z" fill="#C3C4C4"/>
<path d="M271.313 55.2961H269.117V59.9212H271.313V55.2961Z" fill="#FEFEFF"/>
<path d="M276.958 61.7388C276.958 61.7843 274.055 61.8247 270.48 61.8247C266.905 61.8247 263.997 61.7843 263.997 61.7388C263.997 61.6934 266.9 61.6479 270.48 61.6479C274.06 61.6479 276.958 61.6883 276.958 61.7388Z" fill="#C3C4C4"/>
<path d="M271.313 64.6221H269.117V69.2471H271.313V64.6221Z" fill="#FEFEFF"/>
<path d="M276.958 71.0597C276.958 71.1102 274.055 71.1506 270.48 71.1506C266.905 71.1506 263.997 71.1102 263.997 71.0597C263.997 71.0092 266.9 70.9739 270.48 70.9739C274.06 70.9739 276.958 71.0143 276.958 71.0597Z" fill="#C3C4C4"/>
<path d="M271.313 73.9429H269.117V78.5679H271.313V73.9429Z" fill="#FEFEFF"/>
<path d="M276.958 80.3856C276.958 80.4361 274.055 80.4765 270.48 80.4765C266.905 80.4765 263.997 80.4361 263.997 80.3856C263.997 80.3351 266.9 80.2998 270.48 80.2998C274.06 80.2998 276.958 80.3402 276.958 80.3856Z" fill="#C3C4C4"/>
<path d="M271.313 83.2686H269.117V87.8936H271.313V83.2686Z" fill="#FEFEFF"/>
<path d="M227.976 100.577H197.373V158.658H227.976V100.577Z" fill="#C3C4C4"/>
<path d="M227.981 100.577H213.631V158.658H227.981V100.577Z" fill="#C6C6CC"/>
<path d="M206.542 106.041H203.79V112.726H206.542V106.041Z" fill="#F8F8FF"/>
<path d="M206.542 132.205H203.79V138.89H206.542V132.205Z" fill="#F8F8FF"/>
<path d="M213.631 115.351C213.631 115.407 209.991 115.457 205.502 115.457C201.013 115.457 197.373 115.407 197.373 115.351C197.373 115.296 201.013 115.245 205.502 115.245C209.991 115.245 213.631 115.296 213.631 115.351Z" fill="#F8F8FF"/>
<path d="M206.542 119.224H203.79V125.909H206.542V119.224Z" fill="#F8F8FF"/>
<path d="M213.631 128.54C213.631 128.595 209.991 128.641 205.502 128.641C201.013 128.641 197.373 128.595 197.373 128.54C197.373 128.484 201.013 128.434 205.502 128.434C209.991 128.434 213.631 128.474 213.631 128.54Z" fill="#F8F8FF"/>
<path d="M219.428 106.041H216.676V112.726H219.428V106.041Z" fill="#C3C4C4"/>
<path d="M225.396 106.041H222.644V112.726H225.396V106.041Z" fill="#C3C4C4"/>
<path d="M219.428 118.729H216.676V125.414H219.428V118.729Z" fill="#C3C4C4"/>
<path d="M225.396 118.729H222.644V125.414H225.396V118.729Z" fill="#C3C4C4"/>
<path d="M219.428 131.413H216.676V138.098H219.428V131.413Z" fill="#C3C4C4"/>
<path d="M225.396 131.413H222.644V138.098H225.396V131.413Z" fill="#C3C4C4"/>
<path d="M230.278 99.1736H195.075V100.628H230.278V99.1736Z" fill="#C3C4C4"/>
<path d="M228.193 100.769C228.193 100.83 221.351 100.875 212.914 100.875C204.477 100.875 197.64 100.83 197.64 100.769C197.64 100.709 204.477 100.663 212.914 100.663C221.351 100.663 228.193 100.709 228.193 100.769Z" fill="#C6C6CC"/>
<path d="M342.794 58.7397H316.63V141.668H342.794V58.7397Z" fill="#F8F8FF"/>
<path d="M342.794 58.7397H329.712V141.44H342.794V58.7397Z" fill="#C6C6CC"/>
<path d="M328.859 50.5955H319.619V58.7347H328.859V50.5955Z" fill="#F8F8FF"/>
<path d="M328.859 50.5955H326.657V58.7347H328.859V50.5955Z" fill="#C6C6CC"/>
<path d="M314.448 58.7398V58.2651H343.562V58.7398" fill="#C3C4C4"/>
<path d="M324.012 62.2893H321.795V66.9598H324.012V62.2893Z" fill="#ECECEC"/>
<path d="M329.712 68.7928C329.712 68.8433 326.784 68.8786 323.173 68.8786C319.563 68.8786 316.609 68.8433 316.609 68.7928C316.609 68.7423 319.538 68.7019 323.173 68.7019C326.809 68.7019 329.712 68.7423 329.712 68.7928Z" fill="#C3C4C4"/>
<path d="M337.21 62.2893H334.993V66.9598H337.21V62.2893Z" fill="#C3C4C4"/>
<path d="M342.911 68.7928C342.911 68.8433 339.982 68.8786 336.347 68.8786C332.711 68.8786 329.783 68.8433 329.783 68.7928C329.783 68.7423 332.711 68.7019 336.347 68.7019C339.982 68.7019 342.911 68.7423 342.911 68.7928Z" fill="#C3C4C4"/>
<path d="M337.21 71.5596H334.993V76.2301H337.21V71.5596Z" fill="#C3C4C4"/>
<path d="M342.911 78.0477C342.911 78.0982 339.982 78.1386 336.347 78.1386C332.711 78.1386 329.783 78.0982 329.783 78.0477C329.783 77.9973 332.711 77.9619 336.347 77.9619C339.982 77.9619 342.911 78.0175 342.911 78.0477Z" fill="#C3C4C4"/>
<path d="M337.21 81.1128H334.993V85.7833H337.21V81.1128Z" fill="#C3C4C4"/>
<path d="M342.911 87.6413C342.911 87.6917 339.982 87.7321 336.347 87.7321C332.711 87.7321 329.783 87.6917 329.783 87.6413C329.783 87.5908 332.711 87.5554 336.347 87.5554C339.982 87.5554 342.911 87.5655 342.911 87.6413Z" fill="#C3C4C4"/>
<path d="M337.21 90.6658H334.993V95.3363H337.21V90.6658Z" fill="#C3C4C4"/>
<path d="M342.911 97.169C342.911 97.2195 339.982 97.2599 336.347 97.2599C332.711 97.2599 329.783 97.2195 329.783 97.169C329.783 97.1185 332.711 97.0781 336.347 97.0781C339.982 97.0781 342.911 97.1185 342.911 97.169Z" fill="#C3C4C4"/>
<path d="M337.21 99.946H334.993V104.617H337.21V99.946Z" fill="#C3C4C4"/>
<path d="M342.911 106.45C342.911 106.5 339.982 106.535 336.347 106.535C332.711 106.535 329.783 106.5 329.783 106.45C329.783 106.399 332.711 106.359 336.347 106.359C339.982 106.359 342.911 106.399 342.911 106.45Z" fill="#C3C4C4"/>
<path d="M337.21 109.262H334.993V113.932H337.21V109.262Z" fill="#C3C4C4"/>
<path d="M337.21 118.699H334.993V123.369H337.21V118.699Z" fill="#C3C4C4"/>
<path d="M342.911 115.765C342.911 115.816 339.982 115.856 336.347 115.856C332.711 115.856 329.783 115.816 329.783 115.765C329.783 115.715 332.711 115.674 336.347 115.674C339.982 115.674 342.911 115.715 342.911 115.765Z" fill="#C3C4C4"/>
<path d="M324.012 71.7009H321.795V76.3714H324.012V71.7009Z" fill="#ECECEC"/>
<path d="M329.712 78.2042C329.712 78.2547 326.784 78.2951 323.173 78.2951C319.563 78.2951 316.609 78.2547 316.609 78.2042C316.609 78.1538 319.538 78.1184 323.173 78.1184C326.809 78.1184 329.712 78.1588 329.712 78.2042Z" fill="#C3C4C4"/>
<path d="M324.012 81.1177H321.795V85.7882H324.012V81.1177Z" fill="#ECECEC"/>
<path d="M329.712 87.6412C329.712 87.6917 326.784 87.727 323.173 87.727C319.563 87.727 316.609 87.6917 316.609 87.6412C316.609 87.5907 319.538 87.5503 323.173 87.5503C326.809 87.5503 329.712 87.5705 329.712 87.6412Z" fill="#C3C4C4"/>
<path d="M324.012 90.5293H321.795V95.1998H324.012V90.5293Z" fill="#ECECEC"/>
<path d="M329.712 97.0326C329.712 97.0831 326.784 97.1235 323.173 97.1235C319.563 97.1235 316.609 97.0831 316.609 97.0326C316.609 96.9821 319.538 96.9468 323.173 96.9468C326.809 96.9468 329.712 96.9872 329.712 97.0326Z" fill="#C3C4C4"/>
<path d="M324.012 99.946H321.795V104.617H324.012V99.946Z" fill="#ECECEC"/>
<path d="M329.712 106.45C329.712 106.5 326.784 106.535 323.173 106.535C319.563 106.535 316.609 106.5 316.609 106.45C316.609 106.399 319.538 106.359 323.173 106.359C326.809 106.359 329.712 106.399 329.712 106.45Z" fill="#C3C4C4"/>
<path d="M324.012 109.358H321.795V114.028H324.012V109.358Z" fill="#ECECEC"/>
<path d="M329.712 115.861C329.712 115.912 326.784 115.952 323.173 115.952C319.563 115.952 316.609 115.912 316.609 115.861C316.609 115.811 319.538 115.775 323.173 115.775C326.809 115.775 329.712 115.811 329.712 115.861Z" fill="#C3C4C4"/>
<path d="M324.012 118.774H321.795V123.445H324.012V118.774Z" fill="#ECECEC"/>
<path d="M359.694 102.587H316.746V159.229H359.694V102.587Z" fill="#C6C6CC"/>
<path d="M359.689 102.587H339.553V159.229H359.689V102.587Z" fill="#C3C4C4"/>
<path d="M329.611 110.257H325.748V119.638H329.611V110.257Z" fill="#F8F8FF"/>
<path d="M329.611 146.969H325.748V156.351H329.611V146.969Z" fill="#F8F8FF"/>
<path d="M339.553 123.319C339.553 123.425 334.448 123.511 328.147 123.511C321.845 123.511 316.746 123.425 316.746 123.319C316.746 123.213 321.85 123.127 328.147 123.127C334.443 123.127 339.553 123.213 339.553 123.319Z" fill="#F8F8FF"/>
<path d="M329.611 128.752H325.748V138.133H329.611V128.752Z" fill="#F8F8FF"/>
<path d="M339.553 141.814C339.553 141.92 334.448 142.006 328.147 142.006C321.845 142.006 316.766 141.92 316.766 141.814C316.766 141.708 321.871 141.627 328.167 141.627C334.463 141.627 339.553 141.713 339.553 141.814Z" fill="#F8F8FF"/>
<path d="M347.692 110.257H343.83V119.638H347.692V110.257Z" fill="#F8F8FF"/>
<path d="M356.069 110.257H352.206V119.638H356.069V110.257Z" fill="#F8F8FF"/>
<path d="M347.692 128.055H343.83V137.436H347.692V128.055Z" fill="#F8F8FF"/>
<path d="M356.069 128.055H352.206V137.436H356.069V128.055Z" fill="#F8F8FF"/>
<path d="M347.692 145.858H343.83V155.24H347.692V145.858Z" fill="#F8F8FF"/>
<path d="M356.069 145.858H352.206V155.24H356.069V145.858Z" fill="#F8F8FF"/>
<path d="M362.916 100.613H313.514V102.657H362.916V100.613Z" fill="#C3C4C4"/>
<path d="M359.992 102.849C359.992 102.955 350.399 103.041 338.553 103.041C326.708 103.041 317.114 102.955 317.114 102.849C317.114 102.743 326.708 102.657 338.553 102.657C350.399 102.657 359.992 102.743 359.992 102.849Z" fill="#C6C6CC"/>
<path d="M314.792 158.926H271.505L271.313 90.5144H314.605L314.792 158.926Z" fill="#C6C6CC"/>
<path d="M314.605 90.5144H292.959V158.931H314.605V90.5144Z" fill="#C3C4C4"/>
<path d="M291.54 77.043H276.256V90.5092H291.54V77.043Z" fill="#C6C6CC"/>
<path d="M291.545 77.043H287.9V90.5092H291.545V77.043Z" fill="#C3C4C4"/>
<path d="M315.872 89.7266H267.708V90.5142H315.872V89.7266Z" fill="#C3C4C4"/>
<path d="M283.527 96.3865H279.861V104.112H283.527V96.3865Z" fill="#FEFEFF"/>
<path d="M292.959 107.146C292.959 107.227 288.112 107.293 282.139 107.293C276.165 107.293 271.313 107.227 271.313 107.146C271.313 107.065 276.16 107 282.139 107C288.117 107 292.959 107.065 292.959 107.146Z" fill="#C3C4C4"/>
<path d="M305.36 96.3865H301.694V104.112H305.36V96.3865Z" fill="#F8F8FF"/>
<path d="M314.792 107.146C314.792 107.227 309.944 107.293 303.971 107.293C297.998 107.293 293.146 107.227 293.146 107.146C293.146 107.065 297.993 107 303.971 107C309.95 107 314.792 107.065 314.792 107.146Z" fill="#C6C6CC"/>
<path d="M305.36 111.726H301.694V119.451H305.36V111.726Z" fill="#F8F8FF"/>
<path d="M314.792 122.481C314.792 122.561 309.944 122.627 303.971 122.627C297.998 122.627 293.146 122.561 293.146 122.481C293.146 122.4 297.993 122.334 303.971 122.334C309.95 122.334 314.792 122.405 314.792 122.481Z" fill="#C6C6CC"/>
<path d="M305.36 127.53H301.694V135.255H305.36V127.53Z" fill="#F8F8FF"/>
<path d="M314.792 138.29C314.792 138.37 309.944 138.436 303.971 138.436C297.998 138.436 293.146 138.37 293.146 138.29C293.146 138.209 297.993 138.138 303.971 138.138C309.95 138.138 314.792 138.209 314.792 138.29Z" fill="#C6C6CC"/>
<path d="M305.36 143.334H301.694V151.059H305.36V143.334Z" fill="#F8F8FF"/>
<path d="M314.792 154.089C314.792 154.169 309.944 154.24 303.971 154.24C297.998 154.24 293.146 154.169 293.146 154.089C293.146 154.008 297.993 153.942 303.971 153.942C309.95 153.942 314.792 154.008 314.792 154.089Z" fill="#C6C6CC"/>
<path d="M283.527 111.963H279.861V119.688H283.527V111.963Z" fill="#FEFEFF"/>
<path d="M292.959 122.718C292.959 122.799 288.112 122.869 282.139 122.869C276.165 122.869 271.313 122.799 271.313 122.718C271.313 122.637 276.16 122.572 282.139 122.572C288.117 122.572 292.959 122.637 292.959 122.718Z" fill="#C3C4C4"/>
<path d="M283.527 127.535H279.861V135.26H283.527V127.535Z" fill="#FEFEFF"/>
<path d="M292.959 138.295C292.959 138.376 288.112 138.441 282.139 138.441C276.165 138.441 271.313 138.376 271.313 138.295C271.313 138.214 276.16 138.143 282.139 138.143C288.117 138.143 292.959 138.214 292.959 138.295Z" fill="#C3C4C4"/>
<path d="M283.527 143.107H279.861V150.832H283.527V143.107Z" fill="#FEFEFF"/>
<path d="M292.959 153.866C292.959 153.947 288.112 154.013 282.139 154.013C276.165 154.013 271.313 153.947 271.313 153.866C271.313 153.786 276.16 153.72 282.139 153.72C288.117 153.72 292.959 153.786 292.959 153.866Z" fill="#C3C4C4"/>
<path d="M261.397 32.7566H225.84V159.052H261.397V32.7566Z" fill="#C6C6CC"/>
<path d="M231.894 37.114H228.728V43.789H231.894V37.114Z" fill="#FEFEFF"/>
<path d="M238.549 37.114H235.383V43.789H238.549V37.114Z" fill="#FEFEFF"/>
<path d="M245.204 37.114H242.038V43.789H245.204V37.114Z" fill="#FEFEFF"/>
<path d="M251.854 37.114H248.688V43.789H251.854V37.114Z" fill="#FEFEFF"/>
<path d="M258.508 37.114H255.343V43.789H258.508V37.114Z" fill="#FEFEFF"/>
<path d="M231.894 46.45H228.728V53.125H231.894V46.45Z" fill="#FEFEFF"/>
<path d="M238.549 46.45H235.383V53.125H238.549V46.45Z" fill="#FEFEFF"/>
<path d="M245.204 46.45H242.038V53.125H245.204V46.45Z" fill="#FEFEFF"/>
<path d="M251.854 46.45H248.688V53.125H251.854V46.45Z" fill="#FEFEFF"/>
<path d="M258.508 46.45H255.343V53.125H258.508V46.45Z" fill="#FEFEFF"/>
<path d="M231.894 55.7859H228.728V62.4609H231.894V55.7859Z" fill="#FEFEFF"/>
<path d="M238.549 55.7859H235.383V62.4609H238.549V55.7859Z" fill="#FEFEFF"/>
<path d="M245.204 55.7859H242.038V62.4609H245.204V55.7859Z" fill="#FEFEFF"/>
<path d="M251.854 55.7859H248.688V62.4609H251.854V55.7859Z" fill="#FEFEFF"/>
<path d="M258.508 55.7859H255.343V62.4609H258.508V55.7859Z" fill="#FEFEFF"/>
<path d="M231.894 65.127H228.728V71.802H231.894V65.127Z" fill="#FEFEFF"/>
<path d="M238.549 65.127H235.383V71.802H238.549V65.127Z" fill="#FEFEFF"/>
<path d="M245.204 65.127H242.038V71.802H245.204V65.127Z" fill="#FEFEFF"/>
<path d="M251.854 65.127H248.688V71.802H251.854V65.127Z" fill="#FEFEFF"/>
<path d="M258.508 65.127H255.343V71.802H258.508V65.127Z" fill="#FEFEFF"/>
<path d="M231.894 74.4629H228.728V81.1379H231.894V74.4629Z" fill="#FEFEFF"/>
<path d="M238.549 74.4629H235.383V81.1379H238.549V74.4629Z" fill="#FEFEFF"/>
<path d="M245.204 74.4629H242.038V81.1379H245.204V74.4629Z" fill="#FEFEFF"/>
<path d="M251.854 74.4629H248.688V81.1379H251.854V74.4629Z" fill="#FEFEFF"/>
<path d="M258.508 74.4629H255.343V81.1379H258.508V74.4629Z" fill="#FEFEFF"/>
<path d="M231.894 83.7988H228.728V90.4739H231.894V83.7988Z" fill="#FEFEFF"/>
<path d="M238.549 83.7988H235.383V90.4739H238.549V83.7988Z" fill="#FEFEFF"/>
<path d="M245.204 83.7988H242.038V90.4739H245.204V83.7988Z" fill="#FEFEFF"/>
<path d="M251.854 83.7988H248.688V90.4739H251.854V83.7988Z" fill="#FEFEFF"/>
<path d="M258.508 83.7988H255.343V90.4739H258.508V83.7988Z" fill="#FEFEFF"/>
<path d="M231.894 93.1399H228.728V99.8149H231.894V93.1399Z" fill="#FEFEFF"/>
<path d="M238.549 93.1399H235.383V99.8149H238.549V93.1399Z" fill="#FEFEFF"/>
<path d="M245.204 93.1399H242.038V99.8149H245.204V93.1399Z" fill="#FEFEFF"/>
<path d="M251.854 93.1399H248.688V99.8149H251.854V93.1399Z" fill="#FEFEFF"/>
<path d="M258.508 93.1399H255.343V99.8149H258.508V93.1399Z" fill="#FEFEFF"/>
<path d="M231.894 102.476H228.728V109.151H231.894V102.476Z" fill="#FEFEFF"/>
<path d="M238.549 102.476H235.383V109.151H238.549V102.476Z" fill="#FEFEFF"/>
<path d="M245.204 102.476H242.038V109.151H245.204V102.476Z" fill="#FEFEFF"/>
<path d="M251.854 102.476H248.688V109.151H251.854V102.476Z" fill="#FEFEFF"/>
<path d="M258.508 102.476H255.343V109.151H258.508V102.476Z" fill="#FEFEFF"/>
<path d="M231.894 111.812H228.728V118.487H231.894V111.812Z" fill="#FEFEFF"/>
<path d="M238.549 111.812H235.383V118.487H238.549V111.812Z" fill="#FEFEFF"/>
<path d="M245.204 111.812H242.038V118.487H245.204V111.812Z" fill="#FEFEFF"/>
<path d="M251.854 111.812H248.688V118.487H251.854V111.812Z" fill="#FEFEFF"/>
<path d="M258.508 111.812H255.343V118.487H258.508V111.812Z" fill="#FEFEFF"/>
<path d="M231.894 121.148H228.728V127.823H231.894V121.148Z" fill="#FEFEFF"/>
<path d="M238.549 121.148H235.383V127.823H238.549V121.148Z" fill="#FEFEFF"/>
<path d="M245.204 121.148H242.038V127.823H245.204V121.148Z" fill="#FEFEFF"/>
<path d="M251.854 121.148H248.688V127.823H251.854V121.148Z" fill="#FEFEFF"/>
<path d="M258.508 121.148H255.343V127.823H258.508V121.148Z" fill="#FEFEFF"/>
<path d="M231.894 130.489H228.728V137.164H231.894V130.489Z" fill="#FEFEFF"/>
<path d="M238.549 130.489H235.383V137.164H238.549V130.489Z" fill="#FEFEFF"/>
<path d="M245.204 130.489H242.038V137.164H245.204V130.489Z" fill="#FEFEFF"/>
<path d="M251.854 130.489H248.688V137.164H251.854V130.489Z" fill="#FEFEFF"/>
<path d="M258.508 130.489H255.343V137.164H258.508V130.489Z" fill="#FEFEFF"/>
<path d="M231.894 139.825H228.728V146.5H231.894V139.825Z" fill="#FEFEFF"/>
<path d="M238.549 139.825H235.383V146.5H238.549V139.825Z" fill="#FEFEFF"/>
<path d="M245.204 139.825H242.038V146.5H245.204V139.825Z" fill="#FEFEFF"/>
<path d="M251.854 139.825H248.688V146.5H251.854V139.825Z" fill="#FEFEFF"/>
<path d="M258.508 139.825H255.343V146.5H258.508V139.825Z" fill="#FEFEFF"/>
<path d="M231.894 148.646H228.728V155.321H231.894V148.646Z" fill="#FEFEFF"/>
<path d="M238.549 148.646H235.383V155.321H238.549V148.646Z" fill="#FEFEFF"/>
<path d="M245.204 148.646H242.038V155.321H245.204V148.646Z" fill="#FEFEFF"/>
<path d="M251.854 148.646H248.688V155.321H251.854V148.646Z" fill="#FEFEFF"/>
<path d="M258.508 148.646H255.343V155.321H258.508V148.646Z" fill="#FEFEFF"/>
<path d="M276.928 32.7566H261.397V159.052H276.928V32.7566Z" fill="#C3C4C4"/>
<path d="M245.204 37.114H242.038V43.789H245.204V37.114Z" fill="#FEFEFF"/>
<path d="M251.854 37.114H248.688V43.789H251.854V37.114Z" fill="#FEFEFF"/>
<path d="M258.508 37.114H255.343V43.789H258.508V37.114Z" fill="#FEFEFF"/>
<path d="M245.204 46.45H242.038V53.125H245.204V46.45Z" fill="#FEFEFF"/>
<path d="M251.854 46.45H248.688V53.125H251.854V46.45Z" fill="#FEFEFF"/>
<path d="M258.508 46.45H255.343V53.125H258.508V46.45Z" fill="#FEFEFF"/>
<path d="M245.204 55.7859H242.038V62.4609H245.204V55.7859Z" fill="#FEFEFF"/>
<path d="M251.854 55.7859H248.688V62.4609H251.854V55.7859Z" fill="#FEFEFF"/>
<path d="M258.508 55.7859H255.343V62.4609H258.508V55.7859Z" fill="#FEFEFF"/>
<path d="M245.204 65.127H242.038V71.802H245.204V65.127Z" fill="#FEFEFF"/>
<path d="M251.854 65.127H248.688V71.802H251.854V65.127Z" fill="#FEFEFF"/>
<path d="M258.508 65.127H255.343V71.802H258.508V65.127Z" fill="#FEFEFF"/>
<path d="M245.204 74.4629H242.038V81.1379H245.204V74.4629Z" fill="#FEFEFF"/>
<path d="M251.854 74.4629H248.688V81.1379H251.854V74.4629Z" fill="#FEFEFF"/>
<path d="M258.508 74.4629H255.343V81.1379H258.508V74.4629Z" fill="#FEFEFF"/>
<path d="M245.204 83.7988H242.038V90.4739H245.204V83.7988Z" fill="#FEFEFF"/>
<path d="M251.854 83.7988H248.688V90.4739H251.854V83.7988Z" fill="#FEFEFF"/>
<path d="M258.508 83.7988H255.343V90.4739H258.508V83.7988Z" fill="#FEFEFF"/>
<path d="M245.204 93.1399H242.038V99.8149H245.204V93.1399Z" fill="#FEFEFF"/>
<path d="M251.854 93.1399H248.688V99.8149H251.854V93.1399Z" fill="#FEFEFF"/>
<path d="M258.508 93.1399H255.343V99.8149H258.508V93.1399Z" fill="#FEFEFF"/>
<path d="M245.204 102.476H242.038V109.151H245.204V102.476Z" fill="#FEFEFF"/>
<path d="M251.854 102.476H248.688V109.151H251.854V102.476Z" fill="#FEFEFF"/>
<path d="M258.508 102.476H255.343V109.151H258.508V102.476Z" fill="#FEFEFF"/>
<path d="M245.204 111.812H242.038V118.487H245.204V111.812Z" fill="#FEFEFF"/>
<path d="M251.854 111.812H248.688V118.487H251.854V111.812Z" fill="#FEFEFF"/>
<path d="M258.508 111.812H255.343V118.487H258.508V111.812Z" fill="#FEFEFF"/>
<path d="M245.204 121.148H242.038V127.823H245.204V121.148Z" fill="#FEFEFF"/>
<path d="M251.854 121.148H248.688V127.823H251.854V121.148Z" fill="#FEFEFF"/>
<path d="M258.508 121.148H255.343V127.823H258.508V121.148Z" fill="#FEFEFF"/>
<path d="M245.204 130.489H242.038V137.164H245.204V130.489Z" fill="#FEFEFF"/>
<path d="M251.854 130.489H248.688V137.164H251.854V130.489Z" fill="#FEFEFF"/>
<path d="M258.508 130.489H255.343V137.164H258.508V130.489Z" fill="#FEFEFF"/>
<path d="M245.204 139.825H242.038V146.5H245.204V139.825Z" fill="#FEFEFF"/>
<path d="M251.854 139.825H248.688V146.5H251.854V139.825Z" fill="#FEFEFF"/>
<path d="M258.508 139.825H255.343V146.5H258.508V139.825Z" fill="#FEFEFF"/>
<path d="M245.204 148.646H242.038V155.321H245.204V148.646Z" fill="#FEFEFF"/>
<path d="M251.854 148.646H248.688V155.321H251.854V148.646Z" fill="#FEFEFF"/>
<path d="M258.508 148.646H255.343V155.321H258.508V148.646Z" fill="#FEFEFF"/>
<path d="M268.077 37.114H264.911V43.789H268.077V37.114Z" fill="#C6C6CC"/>
<path d="M274.731 37.114H271.566V43.789H274.731V37.114Z" fill="#C6C6CC"/>
<path d="M268.077 46.45H264.911V53.125H268.077V46.45Z" fill="#C6C6CC"/>
<path d="M274.731 46.45H271.566V53.125H274.731V46.45Z" fill="#C6C6CC"/>
<path d="M268.077 55.7859H264.911V62.4609H268.077V55.7859Z" fill="#C6C6CC"/>
<path d="M274.731 55.7859H271.566V62.4609H274.731V55.7859Z" fill="#C6C6CC"/>
<path d="M268.077 65.127H264.911V71.802H268.077V65.127Z" fill="#C6C6CC"/>
<path d="M274.731 65.127H271.566V71.802H274.731V65.127Z" fill="#C6C6CC"/>
<path d="M268.077 74.4629H264.911V81.1379H268.077V74.4629Z" fill="#C6C6CC"/>
<path d="M274.731 74.4629H271.566V81.1379H274.731V74.4629Z" fill="#C6C6CC"/>
<path d="M268.077 83.7988H264.911V90.4739H268.077V83.7988Z" fill="#C6C6CC"/>
<path d="M274.731 83.7988H271.566V90.4739H274.731V83.7988Z" fill="#C6C6CC"/>
<path d="M268.077 93.1399H264.911V99.8149H268.077V93.1399Z" fill="#C6C6CC"/>
<path d="M274.731 93.1399H271.566V99.8149H274.731V93.1399Z" fill="#C6C6CC"/>
<path d="M268.077 102.476H264.911V109.151H268.077V102.476Z" fill="#C6C6CC"/>
<path d="M274.731 102.476H271.566V109.151H274.731V102.476Z" fill="#C6C6CC"/>
<path d="M268.077 111.812H264.911V118.487H268.077V111.812Z" fill="#C6C6CC"/>
<path d="M274.731 111.812H271.566V118.487H274.731V111.812Z" fill="#C6C6CC"/>
<path d="M268.077 121.148H264.911V127.823H268.077V121.148Z" fill="#C6C6CC"/>
<path d="M274.731 121.148H271.566V127.823H274.731V121.148Z" fill="#C6C6CC"/>
<path d="M268.077 130.489H264.911V137.164H268.077V130.489Z" fill="#C6C6CC"/>
<path d="M274.731 130.489H271.566V137.164H274.731V130.489Z" fill="#C6C6CC"/>
<path d="M268.077 139.825H264.911V146.5H268.077V139.825Z" fill="#C6C6CC"/>
<path d="M274.731 139.825H271.566V146.5H274.731V139.825Z" fill="#C6C6CC"/>
<path d="M268.077 148.646H264.911V155.321H268.077V148.646Z" fill="#C6C6CC"/>
<path d="M274.731 148.646H271.566V155.321H274.731V148.646Z" fill="#C6C6CC"/>
<path d="M306.435 62.572C306.577 62.572 306.693 65.5611 306.693 69.2521C306.693 72.9431 306.577 75.9372 306.435 75.9372C306.294 75.9372 306.173 72.9431 306.173 69.2521C306.173 65.5611 306.289 62.572 306.435 62.572Z" fill="#C3C4C4"/>
<path d="M319.725 76.9775L282.452 87.5556V159.229H319.725V76.9775Z" fill="#C3C4C4"/>
<path d="M288.041 85.9297V73.2158H310.99V79.4162L288.041 85.9297Z" fill="#C3C4C4"/>
<path d="M285.294 88.2675L285.587 154.175H315.908V79.5728L285.294 88.2675Z" fill="#FEFEFF"/>
<path d="M293.489 155.679C293.348 155.679 293.232 139.86 293.232 120.335C293.232 100.81 293.348 84.9905 293.489 84.9905C293.631 84.9905 293.752 100.805 293.752 120.335C293.752 139.865 293.636 155.679 293.489 155.679Z" fill="#C3C4C4"/>
<path d="M306.233 155.679C306.092 155.679 305.971 138.981 305.971 118.386C305.971 97.79 306.092 81.0974 306.233 81.0974C306.375 81.0974 306.496 97.79 306.496 118.386C306.496 138.981 306.38 155.679 306.233 155.679Z" fill="#C3C4C4"/>
<path d="M317.998 98.3304C317.998 98.4718 310.424 98.5879 301.139 98.5879C291.853 98.5879 284.274 98.4718 284.274 98.3304C284.274 98.1891 291.848 98.0679 301.139 98.0679C310.429 98.0679 317.998 98.184 317.998 98.3304Z" fill="#C3C4C4"/>
<path d="M317.685 118.497C317.685 118.643 310.111 118.76 300.821 118.76C291.53 118.76 283.946 118.643 283.946 118.497C283.946 118.351 291.52 118.24 300.805 118.24C310.091 118.24 317.685 118.356 317.685 118.497Z" fill="#C3C4C4"/>
<path d="M319.573 138.825C319.573 138.971 311.742 139.087 302.083 139.087C292.424 139.087 284.593 138.971 284.593 138.825C284.593 138.678 292.424 138.567 302.083 138.567C311.742 138.567 319.573 138.684 319.573 138.825Z" fill="#C3C4C4"/>
<path d="M319.583 76.9773C319.624 77.1136 311.373 79.5776 301.159 82.4759C290.944 85.3741 282.633 87.6109 282.593 87.4745C282.553 87.3382 290.803 84.8742 301.017 81.976C311.232 79.0777 319.543 76.8359 319.583 76.9773Z" fill="#C3C4C4"/>
<path d="M295.196 113.392C295.095 113.291 296.928 111.292 299.291 108.929C301.654 106.566 303.648 104.733 303.749 104.839C303.85 104.945 302.022 106.934 299.659 109.297C297.296 111.66 295.297 113.493 295.196 113.392Z" fill="#C3C4C4"/>
<path d="M300.891 105.278C300.992 105.384 300.331 106.172 299.417 107.04C298.503 107.909 297.685 108.555 297.584 108.429C297.483 108.302 298.145 107.535 299.058 106.661C299.972 105.788 300.795 105.177 300.891 105.278Z" fill="#C3C4C4"/>
<path d="M302.997 128.095C303.098 128.196 301.533 129.959 299.498 132.029C297.463 134.099 295.731 135.694 295.63 135.593C295.529 135.492 297.094 133.735 299.129 131.665C301.164 129.595 302.891 127.999 302.997 128.095Z" fill="#C3C4C4"/>
<path d="M300.134 128.989C300.24 129.085 299.72 129.837 298.973 130.665C298.225 131.493 297.534 132.084 297.428 131.988C297.321 131.892 297.836 131.14 298.584 130.312C299.331 129.484 300.028 128.893 300.134 128.989Z" fill="#C3C4C4"/>
<path d="M313.009 88.2824C313.115 88.3733 312.338 89.4639 311.272 90.7161C310.207 91.9683 309.253 92.9024 309.137 92.8115C309.02 92.7206 309.803 91.63 310.874 90.3778C311.944 89.1256 312.898 88.1864 313.009 88.2824Z" fill="#C3C4C4"/>
<path d="M312.141 86.9545C312.247 87.0554 311.692 87.8381 310.904 88.7065C310.116 89.575 309.389 90.2213 309.283 90.1052C309.177 89.989 309.732 89.2266 310.52 88.3581C311.308 87.4897 312.035 86.8585 312.141 86.9545Z" fill="#C3C4C4"/>
<path d="M290.692 145.969C290.808 146.05 290.333 146.924 289.627 147.918C288.92 148.913 288.258 149.655 288.112 149.57C287.965 149.484 288.47 148.615 289.177 147.616C289.884 146.616 290.576 145.884 290.692 145.969Z" fill="#C3C4C4"/>
<path d="M289.793 144.768C289.894 144.864 289.475 145.485 288.854 146.146C288.233 146.808 287.642 147.267 287.541 147.156C287.44 147.045 287.854 146.444 288.475 145.778C289.096 145.111 289.687 144.667 289.793 144.768Z" fill="#C3C4C4"/>
<path d="M153.359 70.0498H130.476V142.571H153.359V70.0498Z" fill="#F8F8FF"/>
<path d="M153.359 70.0498H141.918V142.374H153.359V70.0498Z" fill="#C6C6CC"/>
<path d="M141.165 62.9255H133.087V70.0449H141.165V62.9255Z" fill="#F8F8FF"/>
<path d="M141.165 62.9255H139.242V70.0449H141.165V62.9255Z" fill="#C6C6CC"/>
<path d="M128.568 70.0499V69.6309H154.031V70.0499" fill="#C3C4C4"/>
<path d="M136.934 73.155H134.995V77.2398H136.934V73.155Z" fill="#ECECEC"/>
<path d="M141.918 78.8406C141.918 78.8809 139.358 78.9163 136.197 78.9163C133.036 78.9163 130.476 78.8809 130.476 78.8406C130.476 78.8002 133.036 78.7598 136.197 78.7598C139.358 78.7598 141.918 78.7951 141.918 78.8406Z" fill="#C3C4C4"/>
<path d="M148.471 73.155H146.533V77.2398H148.471V73.155Z" fill="#C3C4C4"/>
<path d="M153.46 78.8406C153.46 78.8809 150.895 78.9163 147.739 78.9163C144.584 78.9163 142.019 78.8809 142.019 78.8406C142.019 78.8002 144.578 78.7598 147.739 78.7598C150.9 78.7598 153.46 78.7951 153.46 78.8406Z" fill="#C3C4C4"/>
<path d="M148.471 81.2642H146.533V85.349H148.471V81.2642Z" fill="#C3C4C4"/>
<path d="M153.46 86.9494C153.46 86.9898 150.895 87.0252 147.739 87.0252C144.584 87.0252 142.019 86.9898 142.019 86.9494C142.019 86.909 144.578 86.8687 147.739 86.8687C150.9 86.8687 153.46 86.904 153.46 86.9494Z" fill="#C3C4C4"/>
<path d="M148.471 89.6155H146.533V93.7003H148.471V89.6155Z" fill="#C3C4C4"/>
<path d="M153.46 95.3009C153.46 95.3464 150.895 95.3817 147.739 95.3817C144.584 95.3817 142.019 95.3464 142.019 95.3009C142.019 95.2555 144.589 95.2151 147.739 95.2151C150.89 95.2151 153.46 95.2605 153.46 95.3009Z" fill="#C3C4C4"/>
<path d="M148.471 97.9668H146.533V102.052H148.471V97.9668Z" fill="#C3C4C4"/>
<path d="M153.46 103.657C153.46 103.698 150.895 103.733 147.739 103.733C144.584 103.733 142.019 103.698 142.019 103.657C142.019 103.617 144.578 103.576 147.739 103.576C150.9 103.576 153.46 103.612 153.46 103.657Z" fill="#C3C4C4"/>
<path d="M148.471 106.081H146.533V110.166H148.471V106.081Z" fill="#C3C4C4"/>
<path d="M153.46 111.771C153.46 111.812 150.895 111.847 147.739 111.847C144.584 111.847 142.019 111.812 142.019 111.771C142.019 111.731 144.578 111.691 147.739 111.691C150.9 111.691 153.46 111.726 153.46 111.771Z" fill="#C3C4C4"/>
<path d="M148.471 114.23H146.533V118.315H148.471V114.23Z" fill="#C3C4C4"/>
<path d="M148.471 122.486H146.533V126.571H148.471V122.486Z" fill="#C3C4C4"/>
<path d="M153.46 119.916C153.46 119.961 150.895 119.996 147.739 119.996C144.584 119.996 142.019 119.961 142.019 119.916C142.019 119.87 144.578 119.84 147.739 119.84C150.9 119.84 153.46 119.875 153.46 119.916Z" fill="#C3C4C4"/>
<path d="M136.934 81.3853H134.995V85.47H136.934V81.3853Z" fill="#ECECEC"/>
<path d="M141.918 87.0709C141.918 87.1163 139.358 87.1516 136.197 87.1516C133.036 87.1516 130.476 87.1163 130.476 87.0709C130.476 87.0254 133.036 86.9951 136.197 86.9951C139.358 86.9951 141.918 87.0305 141.918 87.0709Z" fill="#C3C4C4"/>
<path d="M136.934 89.6155H134.995V93.7003H136.934V89.6155Z" fill="#ECECEC"/>
<path d="M141.918 95.3059C141.918 95.3463 139.358 95.3816 136.197 95.3816C133.036 95.3816 130.476 95.3463 130.476 95.3059C130.476 95.2655 133.036 95.2251 136.197 95.2251C139.358 95.2251 141.918 95.2604 141.918 95.3059Z" fill="#C3C4C4"/>
<path d="M136.934 97.8506H134.995V101.935H136.934V97.8506Z" fill="#ECECEC"/>
<path d="M141.918 103.536C141.918 103.582 139.358 103.617 136.197 103.617C133.036 103.617 130.476 103.582 130.476 103.536C130.476 103.491 133.036 103.46 136.197 103.46C139.358 103.46 141.918 103.496 141.918 103.536Z" fill="#C3C4C4"/>
<path d="M136.934 106.081H134.995V110.166H136.934V106.081Z" fill="#ECECEC"/>
<path d="M141.918 111.771C141.918 111.812 139.358 111.847 136.197 111.847C133.036 111.847 130.476 111.812 130.476 111.771C130.476 111.731 133.036 111.691 136.197 111.691C139.358 111.691 141.918 111.726 141.918 111.771Z" fill="#C3C4C4"/>
<path d="M136.934 114.316H134.995V118.401H136.934V114.316Z" fill="#ECECEC"/>
<path d="M141.918 120.002C141.918 120.047 139.358 120.082 136.197 120.082C133.036 120.082 130.476 120.047 130.476 120.002C130.476 119.956 133.036 119.926 136.197 119.926C139.358 119.926 141.918 119.956 141.918 120.002Z" fill="#C3C4C4"/>
<path d="M136.934 122.546H134.995V126.631H136.934V122.546Z" fill="#ECECEC"/>
<path d="M166.76 102.279H123.811V158.921H166.76V102.279Z" fill="#C6C6CC"/>
<path d="M166.755 102.279H146.618V158.921H166.755V102.279Z" fill="#C3C4C4"/>
<path d="M136.677 109.949H132.814V119.33H136.677V109.949Z" fill="#F8F8FF"/>
<path d="M136.677 146.666H132.814V156.048H136.677V146.666Z" fill="#F8F8FF"/>
<path d="M146.608 123.011C146.608 123.117 141.504 123.203 135.207 123.203C128.911 123.203 123.801 123.117 123.801 123.011C123.801 122.905 128.906 122.824 135.207 122.824C141.509 122.824 146.608 122.91 146.608 123.011Z" fill="#F8F8FF"/>
<path d="M136.677 128.449H132.814V137.83H136.677V128.449Z" fill="#F8F8FF"/>
<path d="M146.608 141.511C146.608 141.617 141.504 141.703 135.207 141.703C128.911 141.703 123.801 141.617 123.801 141.511C123.801 141.405 128.906 141.319 135.207 141.319C141.509 141.319 146.608 141.405 146.608 141.511Z" fill="#F8F8FF"/>
<path d="M154.758 109.949H150.895V119.33H154.758V109.949Z" fill="#F8F8FF"/>
<path d="M163.134 109.949H159.272V119.33H163.134V109.949Z" fill="#F8F8FF"/>
<path d="M154.758 127.752H150.895V137.133H154.758V127.752Z" fill="#F8F8FF"/>
<path d="M163.134 127.752H159.272V137.133H163.134V127.752Z" fill="#F8F8FF"/>
<path d="M154.758 145.555H150.895V154.937H154.758V145.555Z" fill="#F8F8FF"/>
<path d="M163.134 145.555H159.272V154.937H163.134V145.555Z" fill="#F8F8FF"/>
<path d="M169.986 100.31H120.585V102.355H169.986V100.31Z" fill="#C3C4C4"/>
<path d="M167.057 102.546C167.057 102.647 157.464 102.733 145.619 102.733C133.773 102.733 124.18 102.647 124.18 102.546C124.18 102.445 133.773 102.354 145.619 102.354C157.464 102.354 167.057 102.44 167.057 102.546Z" fill="#C6C6CC"/>
<path d="M45.2509 44.9099H14.4357V142.571H45.2509V44.9099Z" fill="#F8F8FF"/>
<path d="M45.2508 44.9099H29.8458V142.299H45.2508V44.9099Z" fill="#C6C6CC"/>
<path d="M28.836 35.3215H17.955V44.9099H28.836V35.3215Z" fill="#F8F8FF"/>
<path d="M28.841 35.3215H26.2457V44.9099H28.841V35.3215Z" fill="#C6C6CC"/>
<path d="M11.8707 44.9101V44.3496H46.1547V44.9101" fill="#C3C4C4"/>
<path d="M23.1304 49.0908H20.52V54.5894H23.1304V49.0908Z" fill="#ECECEC"/>
<path d="M29.8458 56.7503C29.8458 56.8059 26.3972 56.8564 22.1407 56.8564C17.8843 56.8564 14.4357 56.8059 14.4357 56.7503C14.4357 56.6948 17.8843 56.6443 22.1407 56.6443C26.3972 56.6443 29.8458 56.6897 29.8458 56.7503Z" fill="#C3C4C4"/>
<path d="M38.6718 49.0908H36.0613V54.5894H38.6718V49.0908Z" fill="#C3C4C4"/>
<path d="M45.3872 56.7503C45.3872 56.8059 41.9386 56.8564 37.6822 56.8564C33.4257 56.8564 29.972 56.8059 29.972 56.7503C29.972 56.6948 33.4206 56.6443 37.6771 56.6443C41.9336 56.6443 45.3872 56.6897 45.3872 56.7503Z" fill="#C3C4C4"/>
<path d="M38.6718 60.0122H36.0613V65.5108H38.6718V60.0122Z" fill="#C3C4C4"/>
<path d="M45.3872 67.6717C45.3872 67.7272 41.9386 67.7727 37.6822 67.7727C33.4257 67.7727 29.972 67.7272 29.972 67.6717C29.972 67.6162 33.4206 67.5657 37.6771 67.5657C41.9336 67.5657 45.3872 67.6111 45.3872 67.6717Z" fill="#C3C4C4"/>
<path d="M38.6718 71.2617H36.0613V76.7603H38.6718V71.2617Z" fill="#C3C4C4"/>
<path d="M45.3872 78.9162C45.3872 78.9768 41.9386 79.0222 37.6822 79.0222C33.4257 79.0222 29.972 78.9768 29.972 78.9162C29.972 78.8556 33.4206 78.8152 37.6771 78.8152C41.9336 78.8152 45.3872 78.8606 45.3872 78.9162Z" fill="#C3C4C4"/>
<path d="M38.6718 82.5112H36.0613V88.0098H38.6718V82.5112Z" fill="#C3C4C4"/>
<path d="M45.3872 90.1659C45.3872 90.2265 41.9386 90.272 37.6822 90.272C33.4257 90.272 29.972 90.2265 29.972 90.1659C29.972 90.1053 33.4206 90.0649 37.6771 90.0649C41.9336 90.0649 45.3872 90.1104 45.3872 90.1659Z" fill="#C3C4C4"/>
<path d="M38.6718 93.4377H36.0613V98.9363H38.6718V93.4377Z" fill="#C3C4C4"/>
<path d="M45.3872 101.097C45.3872 101.153 41.9386 101.198 37.6822 101.198C33.4257 101.198 29.972 101.153 29.972 101.097C29.972 101.042 33.4206 100.991 37.6771 100.991C41.9336 100.991 45.3872 101.037 45.3872 101.097Z" fill="#C3C4C4"/>
<path d="M38.6718 104.41H36.0613V109.908H38.6718V104.41Z" fill="#C3C4C4"/>
<path d="M38.6718 115.523H36.0613V121.022H38.6718V115.523Z" fill="#C3C4C4"/>
<path d="M45.3872 112.064C45.3872 112.125 41.9386 112.17 37.6822 112.17C33.4257 112.17 29.972 112.125 29.972 112.064C29.972 112.004 33.4206 111.963 37.6771 111.963C41.9336 111.963 45.3872 112.009 45.3872 112.064Z" fill="#C3C4C4"/>
<path d="M23.1304 60.1787H20.52V65.6773H23.1304V60.1787Z" fill="#ECECEC"/>
<path d="M29.8458 67.8385C29.8458 67.894 26.3972 67.9394 22.1407 67.9394C17.8843 67.9394 14.4357 67.894 14.4357 67.8385C14.4357 67.7829 17.8843 67.7324 22.1407 67.7324C26.3972 67.7324 29.8458 67.7779 29.8458 67.8385Z" fill="#C3C4C4"/>
<path d="M23.1304 71.2617H20.52V76.7603H23.1304V71.2617Z" fill="#ECECEC"/>
<path d="M29.8458 78.9212C29.8458 78.9818 26.3972 79.0273 22.1407 79.0273C17.8843 79.0273 14.4357 78.9818 14.4357 78.9212C14.4357 78.8606 17.8843 78.8152 22.1407 78.8152C26.3972 78.8152 29.8458 78.8657 29.8458 78.9212Z" fill="#C3C4C4"/>
<path d="M23.1304 82.3499H20.52V87.8484H23.1304V82.3499Z" fill="#ECECEC"/>
<path d="M29.8458 90.0094C29.8458 90.0649 26.3972 90.1154 22.1407 90.1154C17.8843 90.1154 14.4357 90.0649 14.4357 90.0094C14.4357 89.9538 17.8843 89.9033 22.1407 89.9033C26.3972 89.9033 29.8458 89.9488 29.8458 90.0094Z" fill="#C3C4C4"/>
<path d="M23.1304 93.4377H20.52V98.9363H23.1304V93.4377Z" fill="#ECECEC"/>
<path d="M29.8458 101.097C29.8458 101.153 26.3972 101.198 22.1407 101.198C17.8843 101.198 14.4357 101.153 14.4357 101.097C14.4357 101.042 17.8843 100.991 22.1407 100.991C26.3972 100.991 29.8458 101.037 29.8458 101.097Z" fill="#C3C4C4"/>
<path d="M23.1304 104.521H20.52V110.019H23.1304V104.521Z" fill="#ECECEC"/>
<path d="M29.8458 112.18C29.8458 112.241 26.3972 112.286 22.1407 112.286C17.8843 112.286 14.4357 112.241 14.4357 112.18C14.4357 112.12 17.8843 112.074 22.1407 112.074C26.3972 112.074 29.8458 112.125 29.8458 112.18Z" fill="#C3C4C4"/>
<path d="M23.1304 115.609H20.52V121.107H23.1304V115.609Z" fill="#ECECEC"/>
<path d="M49.1488 102.279H6.20044V158.921H49.1488V102.279Z" fill="#C6C6CC"/>
<path d="M49.1489 102.279H29.0127V158.921H49.1489V102.279Z" fill="#C3C4C4"/>
<path d="M19.0708 109.949H15.2082V119.33H19.0708V109.949Z" fill="#F8F8FF"/>
<path d="M19.0708 146.666H15.2082V156.048H19.0708V146.666Z" fill="#F8F8FF"/>
<path d="M29.0127 123.011C29.0127 123.117 23.9029 123.203 17.6066 123.203C11.3102 123.203 6.20044 123.117 6.20044 123.011C6.20044 122.905 11.3052 122.824 17.6066 122.824C23.9079 122.824 29.0127 122.91 29.0127 123.011Z" fill="#F8F8FF"/>
<path d="M19.0708 128.449H15.2082V137.83H19.0708V128.449Z" fill="#F8F8FF"/>
<path d="M29.0127 141.511C29.0127 141.617 23.9029 141.703 17.6066 141.703C11.3102 141.703 6.20044 141.617 6.20044 141.511C6.20044 141.405 11.3052 141.319 17.6066 141.319C23.9079 141.319 29.0127 141.405 29.0127 141.511Z" fill="#F8F8FF"/>
<path d="M37.1519 109.949H33.2893V119.33H37.1519V109.949Z" fill="#F8F8FF"/>
<path d="M45.5286 109.949H41.666V119.33H45.5286V109.949Z" fill="#F8F8FF"/>
<path d="M37.1519 127.752H33.2893V137.133H37.1519V127.752Z" fill="#F8F8FF"/>
<path d="M45.5286 127.752H41.666V137.133H45.5286V127.752Z" fill="#F8F8FF"/>
<path d="M37.1519 145.555H33.2893V154.937H37.1519V145.555Z" fill="#F8F8FF"/>
<path d="M45.5286 145.555H41.666V154.937H45.5286V145.555Z" fill="#F8F8FF"/>
<path d="M52.3753 100.31H2.974V102.355H52.3753V100.31Z" fill="#C3C4C4"/>
<path d="M49.4468 102.546C49.4468 102.647 39.8533 102.733 28.013 102.733C16.1726 102.733 6.5741 102.647 6.5741 102.546C6.5741 102.445 16.1676 102.354 28.013 102.354C39.8583 102.354 49.4468 102.44 49.4468 102.546Z" fill="#C6C6CC"/>
<path d="M123.705 158.926H80.4185L80.2316 90.5144H123.518L123.705 158.926Z" fill="#C6C6CC"/>
<path d="M123.518 90.5144H101.872V158.931H123.518V90.5144Z" fill="#C3C4C4"/>
<path d="M100.459 77.043H85.1748V90.5092H100.459V77.043Z" fill="#C6C6CC"/>
<path d="M100.464 77.043H96.8182V90.5092H100.464V77.043Z" fill="#C3C4C4"/>
<path d="M124.786 89.7266H76.6215V90.5142H124.786V89.7266Z" fill="#C3C4C4"/>
<path d="M92.4406 96.3865H88.7749V104.112H92.4406V96.3865Z" fill="#FEFEFF"/>
<path d="M101.872 107.146C101.872 107.227 97.0303 107.293 91.052 107.293C85.0738 107.293 80.2316 107.227 80.2316 107.146C80.2316 107.065 85.0738 107 91.052 107C97.0303 107 101.872 107.065 101.872 107.146Z" fill="#C3C4C4"/>
<path d="M114.273 96.3865H110.608V104.112H114.273V96.3865Z" fill="#F8F8FF"/>
<path d="M123.705 107.146C123.705 107.227 118.863 107.293 112.885 107.293C106.907 107.293 102.064 107.227 102.064 107.146C102.064 107.065 106.907 107 112.885 107C118.863 107 123.705 107.065 123.705 107.146Z" fill="#C6C6CC"/>
<path d="M114.273 111.726H110.608V119.451H114.273V111.726Z" fill="#F8F8FF"/>
<path d="M123.705 122.481C123.705 122.561 118.863 122.627 112.885 122.627C106.907 122.627 102.064 122.561 102.064 122.481C102.064 122.4 106.907 122.334 112.885 122.334C118.863 122.334 123.705 122.405 123.705 122.481Z" fill="#C6C6CC"/>
<path d="M114.273 127.53H110.608V135.255H114.273V127.53Z" fill="#F8F8FF"/>
<path d="M123.705 138.29C123.705 138.37 118.863 138.436 112.885 138.436C106.907 138.436 102.064 138.37 102.064 138.29C102.064 138.209 106.907 138.138 112.885 138.138C118.863 138.138 123.705 138.209 123.705 138.29Z" fill="#C6C6CC"/>
<path d="M114.273 143.334H110.608V151.059H114.273V143.334Z" fill="#F8F8FF"/>
<path d="M123.705 154.089C123.705 154.169 118.863 154.24 112.885 154.24C106.907 154.24 102.064 154.169 102.064 154.089C102.064 154.008 106.907 153.942 112.885 153.942C118.863 153.942 123.705 154.008 123.705 154.089Z" fill="#C6C6CC"/>
<path d="M92.4406 111.963H88.7749V119.688H92.4406V111.963Z" fill="#FEFEFF"/>
<path d="M101.872 122.718C101.872 122.799 97.0303 122.869 91.052 122.869C85.0738 122.869 80.2316 122.799 80.2316 122.718C80.2316 122.637 85.0738 122.572 91.052 122.572C97.0303 122.572 101.872 122.637 101.872 122.718Z" fill="#C3C4C4"/>
<path d="M92.4406 127.535H88.7749V135.26H92.4406V127.535Z" fill="#FEFEFF"/>
<path d="M101.872 138.295C101.872 138.376 97.0303 138.441 91.052 138.441C85.0738 138.441 80.2316 138.376 80.2316 138.295C80.2316 138.214 85.0738 138.143 91.052 138.143C97.0303 138.143 101.872 138.214 101.872 138.295Z" fill="#C3C4C4"/>
<path d="M92.4406 143.107H88.7749V150.832H92.4406V143.107Z" fill="#FEFEFF"/>
<path d="M101.872 153.866C101.872 153.947 97.0303 154.013 91.052 154.013C85.0738 154.013 80.2316 153.947 80.2316 153.866C80.2316 153.786 85.0738 153.72 91.052 153.72C97.0303 153.72 101.872 153.786 101.872 153.866Z" fill="#C3C4C4"/>
<path d="M111.673 20.9263C111.814 20.9263 111.93 23.9154 111.93 27.6063C111.93 31.2973 111.814 34.2915 111.673 34.2915C111.532 34.2915 111.41 31.2973 111.41 27.6063C111.41 23.9154 111.527 20.9263 111.673 20.9263Z" fill="#C3C4C4"/>
<path d="M124.962 35.3267L87.6893 45.9047V117.583H124.962V35.3267Z" fill="#C3C4C4"/>
<path d="M93.2787 44.2789V31.5701H116.227V37.7654L93.2787 44.2789Z" fill="#C3C4C4"/>
<path d="M90.532 46.6217L90.8299 112.529H121.145V37.927L90.532 46.6217Z" fill="#FEFEFF"/>
<path d="M98.7319 114.028C98.5854 114.028 98.4693 98.2143 98.4693 78.7093C98.4693 59.2043 98.5854 43.365 98.7319 43.365C98.8783 43.365 98.9894 59.174 98.9894 78.7093C98.9894 98.2446 98.8732 114.028 98.7319 114.028Z" fill="#C3C4C4"/>
<path d="M111.471 114.028C111.33 114.028 111.214 97.3357 111.214 76.7401C111.214 56.1444 111.33 39.4468 111.471 39.4468C111.612 39.4468 111.734 56.1444 111.734 76.7401C111.734 97.3357 111.617 114.028 111.471 114.028Z" fill="#C3C4C4"/>
<path d="M123.236 56.6847C123.236 56.8261 115.662 56.9422 106.376 56.9422C97.0909 56.9422 89.5171 56.8261 89.5171 56.6847C89.5171 56.5433 97.0656 56.4221 106.376 56.4221C115.687 56.4221 123.236 56.5383 123.236 56.6847Z" fill="#C3C4C4"/>
<path d="M122.922 76.8513C122.922 76.9977 115.349 77.1138 106.063 77.1138C96.7778 77.1138 89.199 76.9977 89.199 76.8513C89.199 76.7048 96.7475 76.5938 106.063 76.5938C115.379 76.5938 122.922 76.7099 122.922 76.8513Z" fill="#C3C4C4"/>
<path d="M124.811 97.1793C124.811 97.3257 116.98 97.4419 107.321 97.4419C97.6614 97.4419 89.8301 97.3257 89.8301 97.1793C89.8301 97.0329 97.6614 96.9167 107.321 96.9167C116.98 96.9167 124.811 97.0379 124.811 97.1793Z" fill="#C3C4C4"/>
<path d="M124.821 35.3267C124.861 35.4681 116.611 37.9321 106.402 40.8303C96.1921 43.7286 87.871 45.9654 87.8307 45.829C87.7903 45.6927 96.0406 43.2287 106.255 40.3254C116.47 37.4221 124.781 35.1904 124.821 35.3267Z" fill="#C3C4C4"/>
<path d="M100.433 71.7464C100.332 71.6455 102.165 69.646 104.528 67.2829C106.891 64.9199 108.891 63.0871 108.992 63.1881C109.093 63.289 107.26 65.2885 104.897 67.6515C102.534 70.0146 100.534 71.8474 100.433 71.7464Z" fill="#C3C4C4"/>
<path d="M106.129 63.6324C106.23 63.7384 105.568 64.5261 104.655 65.3946C103.741 66.263 102.923 66.8841 102.822 66.778C102.721 66.672 103.382 65.8843 104.296 65.0159C105.21 64.1474 106.033 63.5264 106.129 63.6324Z" fill="#C3C4C4"/>
<path d="M108.234 86.4496C108.335 86.5506 106.77 88.3128 104.735 90.3829C102.701 92.4531 100.974 94.0487 100.868 93.9477C100.762 93.8467 102.332 92.0896 104.367 90.0143C106.402 87.9391 108.128 86.3486 108.234 86.4496Z" fill="#C3C4C4"/>
<path d="M105.372 87.3435C105.478 87.4394 104.958 88.1917 104.21 89.0147C103.463 89.8378 102.771 90.4386 102.665 90.3427C102.559 90.2467 103.079 89.4944 103.827 88.6663C104.574 87.8383 105.266 87.2475 105.372 87.3435Z" fill="#C3C4C4"/>
<path d="M118.247 46.6318C118.358 46.7278 117.581 47.8184 116.51 49.0706C115.44 50.3228 114.49 51.2569 114.374 51.166C114.258 51.0751 115.046 49.9794 116.111 48.7273C117.177 47.4751 118.136 46.541 118.247 46.6318Z" fill="#C3C4C4"/>
<path d="M117.378 45.309C117.485 45.4049 116.934 46.1926 116.146 47.061C115.359 47.9295 114.632 48.5758 114.526 48.4597C114.42 48.3435 114.97 47.5811 115.758 46.7076C116.545 45.8341 117.272 45.2282 117.378 45.309Z" fill="#C3C4C4"/>
<path d="M95.9296 104.304C96.0457 104.39 95.5711 105.263 94.8692 106.258C94.1674 107.252 93.4959 107.99 93.3797 107.909C93.2636 107.828 93.7382 106.949 94.4401 105.955C95.1419 104.96 95.8134 104.238 95.9296 104.304Z" fill="#C3C4C4"/>
<path d="M95.0308 103.117C95.1368 103.218 94.7177 103.834 94.0917 104.5C93.4656 105.167 92.8849 105.621 92.7789 105.51C92.6728 105.399 93.0919 104.793 93.713 104.132C94.334 103.47 94.9248 103.021 95.0308 103.117Z" fill="#C3C4C4"/>
<path d="M207.042 65.2329C206.722 64.2393 206.267 63.2946 205.689 62.4255C205.401 61.9935 205.03 61.6241 204.596 61.3394C204.162 61.0548 203.675 60.8609 203.164 60.7694C202.646 60.6923 202.116 60.7899 201.659 61.0467C201.202 61.3036 200.843 61.7051 200.64 62.1882C200.493 59.9665 200.175 57.6894 199.064 55.7606C197.953 53.8318 195.878 52.317 193.657 52.4534C191.566 52.5796 189.769 54.1347 188.774 55.9878C187.779 57.8408 187.436 59.9514 187.108 62.0468C186.315 61.0723 184.639 61.3803 183.811 62.3245C182.983 63.2687 182.771 64.5866 182.594 65.8337H207.572L207.042 65.2329Z" fill="#F8F8FF"/>
<path d="M256.145 11.8377C255.906 11.1074 255.566 10.4141 255.136 9.77768C254.922 9.45922 254.647 9.18722 254.326 8.97809C254.005 8.76895 253.645 8.62701 253.267 8.56083C252.888 8.50666 252.501 8.57923 252.167 8.76729C251.833 8.95534 251.57 9.24838 251.419 9.60096C251.313 7.97007 251.081 6.29879 250.263 4.87997C249.445 3.46114 247.925 2.35537 246.294 2.45636C244.78 2.54724 243.442 3.68836 242.71 5.04659C241.977 6.40482 241.725 7.95997 241.483 9.47978C240.902 8.76279 239.67 8.97486 239.064 9.68174C238.458 10.3886 238.302 11.348 238.17 12.2619H256.529L256.145 11.8377Z" fill="#F8F8FF"/>
<path d="M328.551 31.9336C328.209 30.8821 327.727 29.8817 327.117 28.9596C326.809 28.5007 326.411 28.1089 325.948 27.8078C325.484 27.5067 324.965 27.3025 324.421 27.2075C323.871 27.1324 323.313 27.2401 322.831 27.5138C322.349 27.7876 321.971 28.2122 321.755 28.7223C321.598 26.3694 321.25 23.9558 320.088 21.916C318.927 19.8761 316.71 18.2654 314.357 18.4118C312.141 18.5482 310.237 20.1942 309.182 22.1533C308.127 24.1124 307.763 26.3542 307.42 28.5506C306.577 27.5408 304.804 27.8387 303.926 28.8435C303.047 29.8483 302.825 31.2418 302.638 32.5597H329.101L328.551 31.9336Z" fill="#F8F8FF"/>
<path d="M350.091 43.7689C349.921 43.2516 349.683 42.7592 349.384 42.3047C349.232 42.0772 349.035 41.883 348.806 41.7337C348.577 41.5844 348.32 41.4832 348.051 41.4362C347.781 41.3979 347.506 41.4499 347.268 41.5842C347.031 41.7184 346.844 41.9273 346.738 42.1785C346.723 41.0111 346.442 39.8625 345.915 38.8207C345.645 38.3029 345.239 37.8681 344.741 37.5631C344.243 37.258 343.671 37.0941 343.087 37.0889C342.547 37.1659 342.034 37.3748 341.594 37.6971C341.154 38.0194 340.799 38.4452 340.563 38.9369C340.096 39.9322 339.801 40.9991 339.689 42.0926C339.275 41.5877 338.402 41.7442 337.967 42.234C337.582 42.7724 337.361 43.4107 337.331 44.0719H350.388L350.091 43.7689Z" fill="#F8F8FF"/>
<path d="M346.627 13.8625C346.369 13.081 346.006 12.3386 345.546 11.656C345.316 11.3125 345.019 11.0198 344.671 10.7958C344.324 10.5717 343.934 10.4211 343.527 10.3533C343.12 10.2946 342.706 10.3716 342.348 10.5725C341.99 10.7734 341.709 11.0868 341.547 11.4641C341.431 9.71707 341.184 7.92966 340.31 6.4149C339.437 4.90014 337.786 3.70349 336.054 3.80952C334.403 3.9105 332.994 5.13746 332.211 6.59162C331.429 8.04579 331.156 9.71202 330.899 11.3429C330.273 10.5754 328.955 10.838 328.303 11.56C327.652 12.2821 327.485 13.3424 327.344 14.3219H347.061L346.627 13.8625Z" fill="#C6C6CC"/>
<path d="M168.062 17.9624C167.823 17.232 167.483 16.5387 167.052 15.9023C166.838 15.5846 166.563 15.3132 166.242 15.1042C165.921 14.8951 165.561 14.7527 165.184 14.6854C164.805 14.6313 164.418 14.7038 164.084 14.8919C163.75 15.08 163.487 15.373 163.336 15.7256C163.23 14.0947 162.998 12.4234 162.18 11.0096C161.362 9.59586 159.842 8.48504 158.211 8.58097C156.671 8.67186 155.359 9.81803 154.626 11.1712C153.971 12.5691 153.558 14.0681 153.404 15.6044C152.819 14.8925 151.587 15.0995 150.981 15.8114C150.375 16.5233 150.218 17.4726 150.087 18.3865H168.431L168.062 17.9624Z" fill="#F8F8FF"/>
<path d="M76.1569 48.2577C75.9178 47.5274 75.5779 46.834 75.1471 46.1976C74.934 45.8791 74.6586 45.6071 74.3375 45.398C74.0164 45.1889 73.6563 45.0469 73.2789 44.9807C72.8993 44.9266 72.5125 44.9992 72.1784 45.1872C71.8443 45.3753 71.5815 45.6683 71.4309 46.0209C71.3249 44.39 71.0926 42.7187 70.2746 41.2999C69.4567 39.8811 67.9369 38.7753 66.306 38.8763C64.766 38.9672 63.4532 40.1083 62.721 41.4665C61.9889 42.8247 61.7364 44.3799 61.4941 45.8997C60.9134 45.1827 59.6814 45.3948 59.0755 46.1017C58.4696 46.8086 58.3131 47.7679 58.1818 48.6818H76.5255L76.1569 48.2577Z" fill="#C6C6CC"/>
<path d="M49.5982 15.2966C49.2699 14.2757 48.8045 13.3041 48.2148 12.4084C47.9167 11.9708 47.5339 11.5974 47.089 11.3103C46.6441 11.0232 46.1461 10.8283 45.6245 10.7371C45.0963 10.6613 44.5578 10.7623 44.0929 11.0244C43.6281 11.2865 43.263 11.695 43.0545 12.1863C42.903 9.91413 42.5799 7.58645 41.4438 5.62232C40.3077 3.65819 38.1871 2.08789 35.92 2.24441C33.7791 2.37569 31.9463 3.96618 30.9263 5.84953C29.9064 7.73288 29.558 9.88888 29.2248 12.0196C28.4118 11.0098 26.7002 11.338 25.8519 12.3024C25.0036 13.2668 24.7916 14.62 24.6098 15.8924H50.1385L49.5982 15.2966Z" fill="#F8F8FF"/>
<path d="M163.452 40.6839C163.114 39.6434 162.636 38.6533 162.034 37.7402C161.729 37.2847 161.336 36.8959 160.877 36.5973C160.417 36.2987 159.902 36.0966 159.363 36.0033C158.82 35.924 158.267 36.0267 157.789 36.2953C157.311 36.5639 156.936 36.9832 156.722 37.4878C156.565 35.1601 156.217 32.7718 155.071 30.7471C153.925 28.7224 151.728 27.1369 149.4 27.2783C147.204 27.4146 145.321 29.0455 144.276 30.9844C143.23 32.9233 142.872 35.1399 142.529 37.3161C141.7 36.3063 139.938 36.6143 139.07 37.6039C138.201 38.5935 137.979 39.9821 137.797 41.2898H163.998L163.452 40.6839Z" fill="#C6C6CC"/>
<path d="M368 159.451C368 159.522 285.612 159.582 184.008 159.582C82.4028 159.582 0 159.522 0 159.451C0 159.38 82.3674 159.34 184.008 159.34C285.648 159.34 368 159.38 368 159.451Z" fill="#3C4142"/>
<path d="M368 163.717C368 163.793 285.612 163.849 184.008 163.849C82.4028 163.849 0 163.793 0 163.717C0 163.642 82.3674 163.586 184.008 163.586C285.648 163.586 368 163.647 368 163.717Z" fill="#3C4142"/>
<path d="M78.4442 220.864C78.4442 220.935 70.7694 220.996 61.277 220.996C51.7845 220.996 44.14 220.935 44.14 220.864C44.14 220.794 51.8097 220.733 61.277 220.733C70.7442 220.733 78.4442 220.794 78.4442 220.864Z" fill="#3C4142"/>
<path d="M113.667 217.259C113.667 217.33 101.307 217.39 86.0584 217.39C70.8098 217.39 58.4443 217.33 58.4443 217.259C58.4443 217.189 70.8048 217.128 86.0584 217.128C101.312 217.128 113.667 217.183 113.667 217.259Z" fill="#3C4142"/>
<path d="M284.618 220.864C284.618 220.935 279.18 220.996 272.474 220.996C265.769 220.996 260.356 220.935 260.356 220.864C260.356 220.794 265.794 220.733 272.474 220.733C279.155 220.733 284.618 220.794 284.618 220.864Z" fill="#3C4142"/>
<path d="M302.169 217.259C302.169 217.33 295.771 217.39 287.885 217.39C279.998 217.39 273.6 217.33 273.6 217.259C273.6 217.189 279.993 217.128 287.885 217.128C295.776 217.128 302.169 217.183 302.169 217.259Z" fill="#3C4142"/>
<path d="M84.8415 21.3809C84.8415 21.3809 84.5285 21.2698 83.9478 21.1436C83.1188 20.9609 82.2637 20.9284 81.4232 21.0476C80.1945 21.2172 79.0362 21.7221 78.0756 22.5068C76.8958 23.4759 76.0615 24.8009 75.6974 26.2836V26.3291L75.6318 26.5967L75.5258 26.3392C74.946 24.9314 73.9531 23.7325 72.678 22.9007C71.6379 22.2246 70.4419 21.8265 69.2042 21.7444C68.3692 21.6823 67.5298 21.7591 66.72 21.9716C66.1444 22.1231 65.8414 22.2544 65.8364 22.2392C65.9035 22.1972 65.9745 22.1617 66.0484 22.1332C66.2613 22.0444 66.4787 21.9669 66.6998 21.9009C67.5185 21.6604 68.3725 21.563 69.2244 21.6131C70.4908 21.6812 71.7176 22.078 72.784 22.7643C74.1004 23.612 75.1218 24.8468 75.7075 26.2988H75.5359V26.2533C75.9054 24.7304 76.7681 23.3723 77.9898 22.3907C78.9813 21.5907 80.1783 21.0867 81.4434 20.9365C82.2874 20.8329 83.1433 20.8859 83.968 21.0931C84.1921 21.15 84.4129 21.2192 84.6294 21.3001C84.7028 21.3193 84.7739 21.3464 84.8415 21.3809Z" fill="#3C4142"/>
<path d="M109.84 7.66224C109.84 7.66224 109.663 7.61175 109.335 7.54611C108.885 7.4543 108.422 7.44064 107.967 7.50572C107.294 7.59971 106.659 7.8775 106.134 8.30854C105.491 8.84391 105.041 9.57429 104.851 10.3888L104.781 10.6564L104.7 10.3888C104.383 9.62284 103.843 8.97006 103.15 8.51556C102.576 8.13895 101.916 7.91478 101.231 7.86421C100.775 7.83134 100.317 7.8688 99.873 7.97529C99.7071 8.02791 99.5385 8.07173 99.368 8.10657C99.4042 8.08182 99.4432 8.06148 99.4842 8.04598C99.6003 7.99224 99.7201 7.94669 99.8427 7.90965C100.291 7.76937 100.762 7.71121 101.231 7.73798C101.937 7.76944 102.621 7.98721 103.216 8.36913C103.946 8.83537 104.514 9.51619 104.841 10.3181H104.67V10.2929C104.874 9.44638 105.354 8.69164 106.033 8.14697C106.588 7.70636 107.257 7.43312 107.962 7.35929C108.43 7.30302 108.905 7.3373 109.36 7.46028C109.485 7.49052 109.606 7.53105 109.724 7.58145C109.805 7.637 109.845 7.65719 109.84 7.66224Z" fill="#3C4142"/>
<path d="M93.4958 2.0475C93.4958 2.0475 93.3241 2.24442 93.0161 2.59281C92.5823 3.08782 92.1904 3.61814 91.8447 4.17826C90.6932 6.0274 90.0892 8.16499 90.1027 10.3433V10.4191H89.921C89.5845 8.28429 88.5909 6.30753 87.0783 4.76397C86.6224 4.29751 86.1237 3.87489 85.5888 3.50167C85.2101 3.23911 84.9879 3.10783 84.998 3.09268C85.057 3.11179 85.1131 3.13898 85.1646 3.17347C85.3241 3.25444 85.4791 3.34377 85.6292 3.44108C86.1841 3.79689 86.7002 4.20981 87.1692 4.67308C88.7336 6.21454 89.7604 8.21856 90.0977 10.3888H89.921V10.308C89.9059 8.09734 90.5358 5.93029 91.7336 4.07223C92.0918 3.51279 92.5045 2.99018 92.9656 2.51203C93.1222 2.33531 93.2635 2.21917 93.3494 2.13334C93.4352 2.0475 93.4907 2.04245 93.4958 2.0475Z" fill="#3C4142"/>
<path d="M203.795 35.3772C210.187 35.3772 215.368 30.1959 215.368 23.8044C215.368 17.413 210.187 12.2317 203.795 12.2317C197.404 12.2317 192.223 17.413 192.223 23.8044C192.223 30.1959 197.404 35.3772 203.795 35.3772Z" fill="#E4191D"/>
<path opacity="0.9" d="M203.795 35.3772C210.187 35.3772 215.368 30.1959 215.368 23.8044C215.368 17.413 210.187 12.2317 203.795 12.2317C197.404 12.2317 192.223 17.413 192.223 23.8044C192.223 30.1959 197.404 35.3772 203.795 35.3772Z" fill="#FEFEFF"/>
<path d="M213.831 26.192C215.152 20.6472 211.728 15.0815 206.184 13.7606C200.639 12.4397 195.073 15.8637 193.752 21.4084C192.431 26.9531 195.855 32.5188 201.4 33.8398C206.945 35.1607 212.511 31.7367 213.831 26.192Z" fill="#E4191D"/>
<path opacity="0.6" d="M213.831 26.192C215.152 20.6472 211.728 15.0815 206.184 13.7606C200.639 12.4397 195.073 15.8637 193.752 21.4084C192.431 26.9531 195.855 32.5188 201.4 33.8398C206.945 35.1607 212.511 31.7367 213.831 26.192Z" fill="#FEFEFF"/>
<path d="M203.795 32.3932C208.539 32.3932 212.384 28.5479 212.384 23.8045C212.384 19.0611 208.539 15.2158 203.795 15.2158C199.052 15.2158 195.207 19.0611 195.207 23.8045C195.207 28.5479 199.052 32.3932 203.795 32.3932Z" fill="#E4191D"/>
<path opacity="0.3" d="M203.795 32.3932C208.539 32.3932 212.384 28.5479 212.384 23.8045C212.384 19.0611 208.539 15.2158 203.795 15.2158C199.052 15.2158 195.207 19.0611 195.207 23.8045C195.207 28.5479 199.052 32.3932 203.795 32.3932Z" fill="#FEFEFF"/>
<path d="M206.41 30.1803C209.924 28.7391 211.604 24.7221 210.163 21.2081C208.722 17.6941 204.705 16.0137 201.191 17.4549C197.677 18.8961 195.996 22.9131 197.438 26.4271C198.879 29.9411 202.896 31.6215 206.41 30.1803Z" fill="#E4191D"/>
<path d="M357.533 191.655H355.216C354.438 191.655 353.812 191.887 353.812 192.16V196.088C353.812 196.431 354.549 196.704 355.463 196.704H356.806V196.936C356.392 197.613 355.034 199.082 351.08 199.138C348.667 199.168 345.657 199.178 343.784 199.178V176.75C343.905 176.75 343.784 171.004 343.784 168.499L338.23 166.035H294.459C294.539 166.106 294.61 166.182 294.686 166.257H292.368C289.303 163.48 281.927 161.542 273.383 161.587C265.052 161.632 257.968 163.551 254.979 166.257H251.848C251.919 166.18 251.993 166.106 252.071 166.035H135.939C136.02 166.106 136.091 166.182 136.167 166.257H133.435C130.37 163.48 122.993 161.542 114.45 161.587C106.119 161.632 99.0348 163.551 96.0457 166.257H93.3292C93.3994 166.18 93.4736 166.106 93.5514 166.035H63.8016L32.6077 168.01L32.6733 169.257H32.6077L32.9106 174.003C32.9561 175.629 33.0116 177.25 33.1833 178.835L42.8575 199.855C42.9131 200.92 45.2407 201.773 48.0935 201.778L64.2509 202.687L66.0232 203.268C67.2078 203.627 68.4414 203.797 69.6788 203.773H92.5819C93.9201 203.798 95.2522 203.585 96.5152 203.142L97.6513 202.697L146.432 202.773V202.819H174.177L215.812 202.889L216.999 203.642C217.903 204.217 219.524 204.566 221.321 204.566H305.001C306.294 204.605 307.581 204.365 308.773 203.864L310.631 202.94H337.7C340.578 202.94 343.759 201.743 343.759 200.673V200.375H349.995C354.539 200.375 358.578 199.001 358.689 197.305H358.906V192.155C358.932 191.897 358.306 191.655 357.533 191.655Z" fill="#F8F8FF"/>
<path d="M37.1469 180.91C37.1469 180.91 61.1508 190.251 65.8162 189.847C70.4817 189.443 90.633 188.746 90.633 188.746L110.254 196.103C110.254 196.103 125.907 196.144 129.885 191.882C133.864 187.62 134.672 187.312 134.672 187.312H256.958L277.185 195.391C277.185 195.391 293.631 191.549 297.498 188.524H338.205V183.738C338.205 183.738 103.377 171.655 102.463 170.953C101.549 170.251 37.1469 180.91 37.1469 180.91Z" fill="#C3C4C4"/>
<path d="M132.198 148.772H79.3531V183.101H132.198V148.772Z" fill="#E4191D"/>
<path opacity="0.3" d="M132.198 148.772H79.3531V183.101H132.198V148.772Z" fill="#575759"/>
<path d="M297.584 148.772H244.739V183.101H297.584V148.772Z" fill="#E4191D"/>
<path opacity="0.3" d="M297.584 148.772H244.739V183.101H297.584V148.772Z" fill="#575759"/>
<path d="M350.994 88.0657H342.683V91.4082C342.683 91.4082 348.162 91.3729 352.1 91.5193C357.437 91.7162 358.22 98.5882 358.22 98.5882H360.037V96.7654C360.037 91.9788 355.796 88.0657 350.994 88.0657Z" fill="#E4191D"/>
<path d="M358.048 96.6694V98.2851H356.655C356.201 98.2851 355.765 98.4655 355.444 98.7865C355.123 99.1075 354.943 99.5429 354.943 99.9968V110.933C354.943 111.319 355.096 111.689 355.369 111.962C355.641 112.234 356.011 112.388 356.397 112.388H358.805C359.191 112.388 359.561 112.234 359.834 111.962C360.106 111.689 360.26 111.319 360.26 110.933V96.6038L358.048 96.6694Z" fill="#E4191D"/>
<path d="M358.053 104.354C357.92 103.242 357.876 102.121 357.922 101.002C357.876 99.8808 357.92 98.758 358.053 97.644C358.183 98.7583 358.227 99.8808 358.184 101.002C358.227 102.121 358.183 103.242 358.053 104.354Z" fill="#3C4142"/>
<path d="M310.081 80.8706L308.182 78.3056C307.725 77.6981 307.132 77.2054 306.451 76.8663C305.77 76.5272 305.02 76.351 304.259 76.3516H217.337C216.431 76.3516 215.54 76.5883 214.753 77.0381C213.965 77.488 213.309 78.1354 212.849 78.9166L211.617 81.017L28.5736 81.8198C27.1468 81.8249 25.7787 82.3884 24.7623 83.3897C23.7459 84.391 23.162 85.7505 23.1356 87.177L21.3179 178.224L53.7034 183.718H84.559C83.0883 180.108 82.5278 176.192 82.9267 172.315C83.3256 168.438 84.6717 164.718 86.8464 161.484C89.0212 158.25 91.9579 155.599 95.398 153.767C98.838 151.935 102.676 150.976 106.573 150.976C110.471 150.976 114.309 151.935 117.749 153.767C121.189 155.599 124.126 158.25 126.3 161.484C128.475 164.718 129.821 168.438 130.22 172.315C130.619 176.192 130.059 180.108 128.588 183.718H249.264C247.792 180.107 247.23 176.19 247.628 172.312C248.027 168.433 249.373 164.712 251.548 161.476C253.723 158.241 256.66 155.589 260.101 153.756C263.542 151.923 267.382 150.964 271.28 150.964C275.179 150.964 279.018 151.923 282.46 153.756C285.901 155.589 288.838 158.241 291.013 161.476C293.188 164.712 294.534 168.433 294.933 172.312C295.331 176.19 294.769 180.107 293.297 183.718H338.74L344.537 176.851V87.2477C344.537 84.2636 341.204 80.9312 338.22 80.9312L310.081 80.8706Z" fill="#E4191D"/>
<path d="M29.4671 93.8066V135.609C29.4684 137.722 30.3083 139.747 31.8022 141.241C33.2962 142.735 35.322 143.575 37.4347 143.576H137.131V94.9225L29.4671 93.8066Z" fill="#3C4142"/>
<path d="M33.1277 97.0835V120.598L38.9242 124.369H82.1099V97.1188L33.1277 97.0835Z" fill="#2D3132"/>
<path d="M86.0179 128.409V97.1038H134.445V139.976L126.068 131.57C125.048 130.549 123.836 129.741 122.503 129.19C121.169 128.639 119.74 128.356 118.297 128.358L86.0179 128.409Z" fill="#2D3132"/>
<path opacity="0.2" d="M90.6329 128.404L125.412 97.1138L134.46 97.0835L100.312 128.388L90.6329 128.404Z" fill="#FEFEFF"/>
<path d="M297.498 93.8066H198.105V143.551H297.498V93.8066Z" fill="#3C4142"/>
<path d="M245.608 96.1443H200.473V140.653H245.608V96.1443Z" fill="#2D3132"/>
<path d="M294.625 96.1443H249.491V140.653H294.625V96.1443Z" fill="#2D3132"/>
<path d="M236.989 183.702C236.989 183.702 236.989 183.541 236.989 183.238C236.989 182.935 236.989 182.475 236.989 181.895C236.989 180.713 236.989 178.997 236.958 176.815C236.958 172.438 236.928 166.212 236.903 158.669L237.014 158.775L206.083 158.8L206.214 158.669C206.214 167.717 206.214 176.26 206.214 183.702L206.093 183.586L228.425 183.647L234.757 183.677H236.438H236.989H236.847H236.428H234.767L228.461 183.707L206.052 183.768H205.936V183.647C205.936 176.204 205.936 167.661 205.936 158.613V158.482H206.073H237.004H237.11V158.593C237.11 166.167 237.07 172.417 237.054 176.805C237.054 178.981 237.054 180.688 237.054 181.854C237.054 182.43 237.054 182.864 237.054 183.177C237.054 183.49 236.989 183.702 236.989 183.702Z" fill="#3C4142"/>
<path d="M80.4639 183.717C80.4639 183.717 80.4639 183.657 80.4639 183.541C80.4639 183.424 80.4639 183.243 80.4639 183.036C80.4639 182.571 80.4639 181.905 80.4639 181.016C80.4639 179.264 80.4386 176.739 80.4235 173.574C80.4235 167.217 80.4235 158.315 80.3781 148.075L80.5043 148.201H69.0022L35.7079 148.161L25.6095 148.121L22.8627 148.095H22.1508H21.9084C21.9084 148.095 21.9892 148.095 22.1508 148.095H22.8627L25.6095 148.07L35.7079 148.025L69.0022 147.989H80.5851V148.115C80.5851 158.355 80.5497 167.257 80.5346 173.614C80.5346 176.78 80.5346 179.304 80.4992 181.056C80.4992 181.92 80.4992 182.571 80.4992 183.076C80.4992 183.293 80.4992 183.465 80.4992 183.581C80.4914 183.627 80.4796 183.673 80.4639 183.717Z" fill="#3C4142"/>
<path d="M55.0311 148.772C55.1069 148.772 55.1674 156.588 55.1674 166.232C55.1674 175.876 55.1069 183.692 55.0311 183.692C54.9554 183.692 54.8998 175.876 54.8998 166.232C54.8998 156.588 54.9604 148.772 55.0311 148.772Z" fill="#3C4142"/>
<path d="M30.4769 148.358C30.5476 148.358 30.6082 155.366 30.6082 164.01C30.6082 172.655 30.5476 179.663 30.4769 179.663C30.4062 179.663 30.3456 172.655 30.3456 164.01C30.3456 155.366 30.381 148.358 30.4769 148.358Z" fill="#3C4142"/>
<path d="M76.9597 176.058C76.9554 176.022 76.9554 175.987 76.9597 175.952V175.634C76.9597 175.344 76.9597 174.94 76.9597 174.422C76.9597 173.356 76.9597 171.816 76.9294 169.878C76.9294 165.964 76.8941 160.41 76.8739 153.786L76.99 153.902H57.6314C57.6011 153.932 57.8789 153.654 57.7627 153.776V159.835C57.7627 161.809 57.7627 163.738 57.7627 165.611C57.7627 169.352 57.7627 172.872 57.7627 176.073L57.6516 175.962L71.6682 176.022L75.6015 176.053H76.6416H77.0102H76.6669H75.657L71.749 176.083L57.6617 176.138H57.5507V176.022C57.5507 172.821 57.5507 169.302 57.5507 165.56C57.5507 163.687 57.5507 161.758 57.5507 159.784V153.786L57.6819 153.649H77.0405H77.1567V153.786C77.1567 160.441 77.1112 166.02 77.0961 169.943C77.0961 171.882 77.0961 173.417 77.0658 174.487C77.0658 174.992 77.0658 175.391 77.0658 175.674C77.0658 175.8 77.0658 175.901 77.0658 175.977C77.0658 176.053 76.9597 176.063 76.9597 176.058Z" fill="#3C4142"/>
<path d="M59.9591 153.786C60.0298 153.786 60.0904 158.774 60.0904 164.929C60.0904 171.084 60.0298 176.073 59.9591 176.073C59.8884 176.073 59.8278 171.084 59.8278 164.929C59.8278 158.774 59.8884 153.786 59.9591 153.786Z" fill="#3C4142"/>
<path d="M62.8876 153.786C62.9583 153.786 63.0189 158.774 63.0189 164.929C63.0189 171.084 62.9583 176.073 62.8876 176.073C62.8169 176.073 62.7563 171.084 62.7563 164.929C62.7563 158.774 62.8169 153.786 62.8876 153.786Z" fill="#3C4142"/>
<path d="M65.8212 153.786C65.8919 153.786 65.9525 158.774 65.9525 164.929C65.9525 171.084 65.8919 176.073 65.8212 176.073C65.7505 176.073 65.6899 171.084 65.6899 164.929C65.6899 158.774 65.7404 153.786 65.8212 153.786Z" fill="#3C4142"/>
<path d="M68.7447 153.786C68.8154 153.786 68.876 158.774 68.876 164.929C68.876 171.084 68.8154 176.073 68.7447 176.073C68.674 176.073 68.6134 171.084 68.6134 164.929C68.6134 158.774 68.6689 153.786 68.7447 153.786Z" fill="#3C4142"/>
<path d="M71.6732 153.786C71.7439 153.786 71.8045 158.774 71.8045 164.929C71.8045 171.084 71.7439 176.073 71.6732 176.073C71.6026 176.073 71.5369 171.084 71.5369 164.929C71.5369 158.774 71.5975 153.786 71.6732 153.786Z" fill="#3C4142"/>
<path d="M74.5967 153.786C74.6725 153.786 74.728 158.774 74.728 164.929C74.728 171.084 74.6725 176.073 74.5967 176.073C74.521 176.073 74.4655 171.084 74.4655 164.929C74.4655 158.774 74.526 153.786 74.5967 153.786Z" fill="#3C4142"/>
<path d="M193.823 99.7798H140.958V183.718H193.823V99.7798Z" fill="#3C4142"/>
<path d="M164.008 105.531H143.907V171.19H164.008V105.531Z" fill="#2D3132"/>
<path d="M190.476 105.531H170.375V171.19H190.476V105.531Z" fill="#2D3132"/>
<path d="M167.31 99.7595C167.381 99.7595 167.441 118.442 167.441 141.415C167.441 164.389 167.381 183.076 167.31 183.076C167.239 183.076 167.179 164.43 167.179 141.415C167.179 118.401 167.229 99.7595 167.31 99.7595Z" fill="#2D3132"/>
<path opacity="0.3" d="M63.4481 97.0835L33.9709 121.163L38.9242 124.369L70.8906 97.0835H63.4481Z" fill="#FEFEFF"/>
<path opacity="0.3" d="M44.655 124.369L76.5558 97.1138H78.3786L46.5838 124.369H44.655Z" fill="#FEFEFF"/>
<path opacity="0.3" d="M200.473 126.682L234.383 96.1796L243.426 96.1443L200.367 135.619L200.473 126.682Z" fill="#FEFEFF"/>
<path opacity="0.3" d="M143.907 145.919V154.765L164.008 136.336V127.833L143.907 145.919Z" fill="#FEFEFF"/>
<path opacity="0.3" d="M170.375 156.447V165.293L190.476 146.863V138.361L170.375 156.447Z" fill="#FEFEFF"/>
<path opacity="0.2" d="M178.989 105.531L170.375 113.281V122.127L188.476 105.531H178.989Z" fill="#FEFEFF"/>
<path opacity="0.3" d="M143.902 158.143L143.867 161.036L164.008 142.794V140.244L143.902 158.143Z" fill="#FEFEFF"/>
<path d="M334.241 99.7798H302.648V183.718H334.241V99.7798Z" fill="#3C4142"/>
<path d="M330.788 105.531H305.602V171.19H330.788V105.531Z" fill="#2D3132"/>
<path opacity="0.2" d="M330.788 105.531H321.032V158.057H330.788V105.531Z" fill="#575759"/>
<path opacity="0.3" d="M305.612 145.919V154.765L330.787 136.336V127.833L305.612 145.919Z" fill="#FEFEFF"/>
<path opacity="0.3" d="M305.602 158.143L305.562 161.036L330.787 142.794V140.244L305.602 158.143Z" fill="#FEFEFF"/>
<path opacity="0.2" d="M250.273 126.97L284.542 96.1443H294.06L250.172 135.907L250.273 126.97Z" fill="#FEFEFF"/>
<path opacity="0.3" d="M249.491 140.89L292.802 100.674H294.625L251.419 140.89H249.491Z" fill="#FEFEFF"/>
<path d="M134.849 100.229H33.1277V101.118H134.849V100.229Z" fill="#3C4142"/>
<path d="M296.716 100.229H199.599V101.118H296.716V100.229Z" fill="#3C4142"/>
<path d="M297.619 154.765H295.367C294.628 154.765 294.029 155.364 294.029 156.103V156.194C294.029 156.933 294.628 157.532 295.367 157.532H297.619C298.358 157.532 298.957 156.933 298.957 156.194V156.103C298.957 155.364 298.358 154.765 297.619 154.765Z" fill="#FF9A6C"/>
<path d="M243.219 171.185H240.967C240.229 171.185 239.629 171.784 239.629 172.523V172.614C239.629 173.353 240.229 173.952 240.967 173.952H243.219C243.958 173.952 244.557 173.353 244.557 172.614V172.523C244.557 171.784 243.958 171.185 243.219 171.185Z" fill="#FEFEFF"/>
<path d="M200.948 171.185H198.696C197.957 171.185 197.358 171.784 197.358 172.523V172.614C197.358 173.353 197.957 173.952 198.696 173.952H200.948C201.687 173.952 202.286 173.353 202.286 172.614V172.523C202.286 171.784 201.687 171.185 200.948 171.185Z" fill="#FF9A6C"/>
<path d="M135.788 170.953H133.536C132.797 170.953 132.198 171.552 132.198 172.291V172.382C132.198 173.121 132.797 173.72 133.536 173.72H135.788C136.527 173.72 137.126 173.121 137.126 172.382V172.291C137.126 171.552 136.527 170.953 135.788 170.953Z" fill="#FF9A6C"/>
<path d="M35.8139 173.72H33.562C32.823 173.72 32.2239 174.319 32.2239 175.058V175.149C32.2239 175.888 32.823 176.487 33.562 176.487H35.8139C36.5529 176.487 37.1519 175.888 37.1519 175.149V175.058C37.1519 174.319 36.5529 173.72 35.8139 173.72Z" fill="#FF9A6C"/>
<path opacity="0.2" d="M314.782 105.531V136.629H305.612L305.602 105.531H314.782Z" fill="#575759"/>
<path d="M344.521 91.7009H338.205V153.892H344.521V91.7009Z" fill="#3C4142"/>
<path d="M344.536 148.59C344.536 148.59 341.325 149.408 340.497 146.535C339.669 143.662 340.497 93.8066 340.497 93.8066H344.536V148.59Z" fill="#2D3132"/>
<path opacity="0.3" d="M340.123 125.228L344.536 121.976V116.169C344.536 115.69 340.139 118.694 340.139 118.694L340.123 125.228Z" fill="#FEFEFF"/>
<path opacity="0.2" d="M224.815 76.604H223.684V79.3053H224.815V76.604Z" fill="#575759"/>
<path opacity="0.2" d="M226.966 76.604H225.835V79.3053H226.966V76.604Z" fill="#575759"/>
<path opacity="0.2" d="M229.117 76.604H227.986V79.3053H229.117V76.604Z" fill="#575759"/>
<path opacity="0.2" d="M231.268 76.604H230.137V79.3053H231.268V76.604Z" fill="#575759"/>
<path opacity="0.2" d="M233.424 76.604H232.293V79.3053H233.424V76.604Z" fill="#575759"/>
<path opacity="0.2" d="M235.575 76.604H234.444V79.3053H235.575V76.604Z" fill="#575759"/>
<path opacity="0.2" d="M237.726 76.604H236.595V79.3053H237.726V76.604Z" fill="#575759"/>
<path opacity="0.2" d="M239.877 76.604H238.746V79.3053H239.877V76.604Z" fill="#575759"/>
<path opacity="0.2" d="M242.033 76.604H240.902V79.3053H242.033V76.604Z" fill="#575759"/>
<path opacity="0.2" d="M244.184 76.604H243.053V79.3053H244.184V76.604Z" fill="#575759"/>
<path opacity="0.2" d="M246.335 76.604H245.204V79.3053H246.335V76.604Z" fill="#575759"/>
<path opacity="0.2" d="M248.486 76.604H247.355V79.3053H248.486V76.604Z" fill="#575759"/>
<path opacity="0.2" d="M250.642 76.604H249.511V79.3053H250.642V76.604Z" fill="#575759"/>
<path opacity="0.2" d="M252.793 76.604H251.662V79.3053H252.793V76.604Z" fill="#575759"/>
<path d="M310.263 80.8705C310.263 80.9412 288.142 81.0018 260.861 81.0018C233.581 81.0018 211.45 80.9412 211.45 80.8705C211.45 80.7998 233.57 80.7393 260.861 80.7393C288.152 80.7393 310.263 80.7948 310.263 80.8705Z" fill="#575759"/>
<path d="M344.536 90.6711C344.536 90.7418 272.57 90.8023 183.816 90.8023C95.0611 90.8023 23.0647 90.7468 23.0647 90.6711C23.0647 90.5953 95.0156 90.5398 183.801 90.5398C272.586 90.5398 344.536 90.6004 344.536 90.6711Z" fill="#3C4142"/>
<path d="M107.795 194.7C117.893 194.7 126.078 186.514 126.078 176.416C126.078 166.319 117.893 158.133 107.795 158.133C97.6977 158.133 89.512 166.319 89.512 176.416C89.512 186.514 97.6977 194.7 107.795 194.7Z" fill="#2D3132"/>
<path d="M342.108 164.869H338.76V170.66H342.108V164.869Z" fill="#FF9A6C"/>
<path d="M344.531 164.869H342.108V170.66H344.531V164.869Z" fill="#FEFEFF"/>
<path d="M195.782 81.2039H139.549V96.1394H195.782V81.2039Z" fill="#3C4142"/>
<path opacity="0.2" d="M193.818 82.8093H141.297V94.5386H193.818V82.8093Z" fill="#575759"/>
<path d="M127.559 175.986C128.055 164.398 119.063 154.603 107.476 154.108C95.889 153.612 86.0939 162.603 85.5981 174.19C85.1023 185.777 94.0937 195.573 105.681 196.068C117.268 196.564 127.063 187.573 127.559 175.986Z" fill="#3C4142"/>
<path d="M85.5939 174.745V174.801C85.5135 180.369 87.6484 185.741 91.5288 189.735C95.4092 193.729 100.717 196.018 106.285 196.098C111.854 196.178 117.225 194.044 121.22 190.163C125.214 186.283 127.503 180.975 127.583 175.407V175.351L85.5939 174.745Z" fill="#3C4142"/>
<path d="M91.8447 174.892C91.8051 177.807 92.6307 180.668 94.217 183.114C95.8034 185.56 98.0794 187.481 100.757 188.634C103.435 189.787 106.395 190.12 109.262 189.591C112.129 189.062 114.775 187.695 116.865 185.663C118.955 183.63 120.396 181.024 121.005 178.173C121.614 175.321 121.365 172.354 120.287 169.645C119.21 166.935 117.354 164.606 114.953 162.952C112.553 161.298 109.716 160.392 106.8 160.35C104.864 160.322 102.94 160.677 101.14 161.393C99.3405 162.109 97.6993 163.172 96.3105 164.523C94.9217 165.873 93.8125 167.484 93.0463 169.263C92.28 171.042 91.8717 172.955 91.8447 174.892Z" fill="#ECECEC"/>
<path d="M106.8 160.35C102.891 160.293 99.119 161.792 96.3143 164.516C93.5096 167.24 91.9019 170.967 91.8447 174.876L121.327 175.301C121.355 173.365 121.001 171.443 120.287 169.644C119.572 167.845 118.509 166.205 117.161 164.816C115.812 163.428 114.202 162.319 112.425 161.553C110.647 160.786 108.736 160.378 106.8 160.35Z" fill="#C3C4C4"/>
<path d="M97.6312 174.993C97.6043 176.77 98.1055 178.516 99.0714 180.008C100.037 181.501 101.424 182.673 103.057 183.377C104.689 184.081 106.494 184.284 108.242 183.962C109.991 183.639 111.604 182.805 112.878 181.565C114.152 180.325 115.029 178.735 115.399 176.996C115.768 175.257 115.614 173.448 114.954 171.797C114.295 170.146 113.161 168.727 111.695 167.722C110.229 166.716 108.497 166.168 106.72 166.146C104.342 166.117 102.05 167.032 100.346 168.69C98.6421 170.348 97.6657 172.615 97.6312 174.993Z" fill="#3C4142"/>
<path d="M272.588 196.066C284.176 195.585 293.179 185.801 292.697 174.213C292.216 162.625 282.432 153.622 270.844 154.104C259.256 154.585 250.253 164.369 250.734 175.957C251.216 187.545 261 196.548 272.588 196.066Z" fill="#3C4142"/>
<path d="M250.707 174.745C250.707 174.745 250.707 174.786 250.707 174.801C250.659 180.349 252.808 185.691 256.686 189.66C260.564 193.629 265.855 195.902 271.403 195.982C276.951 196.062 282.306 193.943 286.297 190.087C290.287 186.232 292.59 180.954 292.702 175.407V175.351L250.707 174.745Z" fill="#3C4142"/>
<path d="M256.958 174.892C256.919 177.807 257.744 180.668 259.331 183.114C260.917 185.56 263.193 187.481 265.871 188.634C268.549 189.787 271.508 190.12 274.375 189.591C277.242 189.062 279.888 187.695 281.979 185.663C284.069 183.63 285.51 181.024 286.119 178.173C286.728 175.321 286.478 172.354 285.401 169.645C284.324 166.935 282.468 164.606 280.067 162.952C277.666 161.298 274.829 160.392 271.914 160.35C269.977 160.322 268.054 160.677 266.254 161.393C264.454 162.109 262.813 163.172 261.424 164.523C260.035 165.873 258.926 167.484 258.16 169.263C257.394 171.042 256.985 172.955 256.958 174.892Z" fill="#ECECEC"/>
<path d="M271.914 160.35C268.004 160.293 264.233 161.792 261.428 164.516C258.623 167.24 257.015 170.967 256.958 174.876L286.44 175.301C286.469 173.365 286.115 171.443 285.4 169.644C284.685 167.845 283.623 166.205 282.274 164.816C280.925 163.428 279.316 162.319 277.538 161.553C275.761 160.786 273.85 160.378 271.914 160.35Z" fill="#C3C4C4"/>
<path d="M262.74 174.993C262.713 176.77 263.214 178.516 264.18 180.008C265.146 181.501 266.533 182.673 268.165 183.377C269.798 184.081 271.602 184.284 273.351 183.962C275.099 183.639 276.712 182.805 277.986 181.565C279.26 180.325 280.138 178.735 280.507 176.996C280.877 175.257 280.722 173.448 280.063 171.797C279.403 170.146 278.269 168.727 276.803 167.722C275.337 166.716 273.606 166.168 271.828 166.146C269.451 166.117 267.158 167.032 265.454 168.69C263.751 170.348 262.774 172.615 262.74 174.993Z" fill="#3C4142"/>
<path opacity="0.2" d="M82.115 97.0835H33.1277V98.467H82.115V97.0835Z" fill="#575759"/>
<path opacity="0.2" d="M134.46 97.0835H86.0331V98.467H134.46V97.0835Z" fill="#575759"/>
<path opacity="0.2" d="M190.476 105.531H143.907V106.914H190.476V105.531Z" fill="#575759"/>
<path opacity="0.2" d="M294.625 96.1443H200.473V97.5278H294.625V96.1443Z" fill="#575759"/>
<path d="M54.1727 81.7038L56.0056 80.0325C57.0429 79.0843 58.3973 78.5584 59.8026 78.5581H83.6146C84.3785 78.5588 85.1344 78.7145 85.8365 79.0156C86.5386 79.3167 87.1723 79.7571 87.6993 80.3102L89.0222 81.7038H54.1727Z" fill="#E4191D"/>
<path d="M90.6279 81.7035C90.6279 81.7793 82.322 81.8348 72.0721 81.8348C61.8223 81.8348 53.5164 81.7793 53.5164 81.7035C53.5164 81.6278 61.8223 81.5723 72.0721 81.5723C82.322 81.5723 90.6279 81.6329 90.6279 81.7035Z" fill="#3C4142"/>
<path d="M24.2058 174.745H21.3177L21.7267 157.633H26.2709V172.675C26.2709 173.223 26.0535 173.749 25.6664 174.137C25.2793 174.525 24.754 174.744 24.2058 174.745Z" fill="#FEFEFF"/>
<path d="M21.9185 148.09C21.9316 148.193 21.9316 148.296 21.9185 148.398C21.9185 148.626 21.9185 148.903 21.9185 149.277C21.9185 150.07 21.8882 151.165 21.863 152.503C21.8327 155.26 21.7923 159.012 21.7469 163.157C21.7014 167.302 21.6459 171.089 21.5499 173.816C21.5045 175.179 21.454 176.28 21.4086 177.042C21.4086 177.401 21.3682 177.694 21.353 177.921C21.3498 178.023 21.3363 178.125 21.3126 178.224C21.2995 178.122 21.2995 178.018 21.3126 177.916C21.3126 177.689 21.3126 177.411 21.3126 177.037C21.3126 176.245 21.3429 175.149 21.3682 173.811C21.3985 171.054 21.4389 167.302 21.4893 163.157C21.5398 159.012 21.5853 155.225 21.6812 152.498C21.7317 151.135 21.7771 150.034 21.8226 149.272C21.8226 148.913 21.868 148.626 21.8832 148.393C21.8834 148.291 21.8953 148.19 21.9185 148.09Z" fill="#3C4142"/>
<path d="M344.536 153.892C344.607 153.892 344.658 155.174 344.688 157.25C344.718 159.325 344.723 162.198 344.688 165.369C344.653 168.54 344.648 171.428 344.617 173.488C344.617 174.498 344.582 175.326 344.567 175.952C344.571 176.252 344.554 176.552 344.516 176.851C344.475 176.553 344.458 176.252 344.466 175.952C344.466 175.326 344.466 174.498 344.43 173.488C344.43 171.413 344.43 168.54 344.43 165.369C344.476 159.395 344.536 155.26 344.536 153.892Z" fill="#3C4142"/>
</svg>
