<svg width="30" height="27" viewBox="0 0 30 27" fill="none" xmlns="http://www.w3.org/2000/svg">
<rect width="30" height="27" rx="4" fill="#575759"/>
<path fill-rule="evenodd" clip-rule="evenodd" d="M7 8.25C7 7.83579 7.33579 7.5 7.75 7.5H22.25C22.6642 7.5 23 7.83579 23 8.25C23 8.66421 22.6642 9 22.25 9H7.75C7.33579 9 7 8.66421 7 8.25ZM7 13.5C7 13.0858 7.33579 12.75 7.75 12.75H22.25C22.6642 12.75 23 13.0858 23 13.5C23 13.9142 22.6642 14.25 22.25 14.25H7.75C7.33579 14.25 7 13.9142 7 13.5ZM7 18.75C7 18.3358 7.33579 18 7.75 18H22.25C22.6642 18 23 18.3358 23 18.75C23 19.1642 22.6642 19.5 22.25 19.5H7.75C7.33579 19.5 7 19.1642 7 18.75Z" fill="#FEFEFF"/>
</svg>
