<svg width="120" height="120" viewBox="0 0 120 120" fill="none" xmlns="http://www.w3.org/2000/svg">
<mask id="mask0_2090_1066" style="mask-type:luminance" maskUnits="userSpaceOnUse" x="0" y="0" width="120" height="120">
<path d="M120 0H0V120H120V0Z" fill="white"/>
</mask>
<g mask="url(#mask0_2090_1066)">
<path d="M120 0H0V120H120V0Z" fill="white"/>
<path d="M13.0759 9.6001H9.59998V13.076H13.0759V9.6001Z" fill="black"/>
<path d="M16.5517 9.6001H13.0759V13.076H16.5517V9.6001Z" fill="black"/>
<path d="M20.0276 9.6001H16.5517V13.076H20.0276V9.6001Z" fill="black"/>
<path d="M23.5034 9.6001H20.0276V13.076H23.5034V9.6001Z" fill="black"/>
<path d="M26.9793 9.6001H23.5034V13.076H26.9793V9.6001Z" fill="black"/>
<path d="M30.4552 9.6001H26.9793V13.076H30.4552V9.6001Z" fill="black"/>
<path d="M33.931 9.6001H30.4552V13.076H33.931V9.6001Z" fill="black"/>
<path d="M40.8828 9.6001H37.4069V13.076H40.8828V9.6001Z" fill="black"/>
<path d="M51.3103 9.6001H47.8345V13.076H51.3103V9.6001Z" fill="black"/>
<path d="M58.2621 9.6001H54.7862V13.076H58.2621V9.6001Z" fill="black"/>
<path d="M61.7379 9.6001H58.2621V13.076H61.7379V9.6001Z" fill="black"/>
<path d="M65.2138 9.6001H61.7379V13.076H65.2138V9.6001Z" fill="black"/>
<path d="M68.6897 9.6001H65.2138V13.076H68.6897V9.6001Z" fill="black"/>
<path d="M75.6414 9.6001H72.1655V13.076H75.6414V9.6001Z" fill="black"/>
<path d="M82.5931 9.6001H79.1172V13.076H82.5931V9.6001Z" fill="black"/>
<path d="M89.5448 9.6001H86.069V13.076H89.5448V9.6001Z" fill="black"/>
<path d="M93.0207 9.6001H89.5448V13.076H93.0207V9.6001Z" fill="black"/>
<path d="M96.4966 9.6001H93.0207V13.076H96.4966V9.6001Z" fill="black"/>
<path d="M99.9724 9.6001H96.4966V13.076H99.9724V9.6001Z" fill="black"/>
<path d="M103.448 9.6001H99.9724V13.076H103.448V9.6001Z" fill="black"/>
<path d="M106.924 9.6001H103.448V13.076H106.924V9.6001Z" fill="black"/>
<path d="M110.4 9.6001H106.924V13.076H110.4V9.6001Z" fill="black"/>
<path d="M13.0759 13.0762H9.59998V16.552H13.0759V13.0762Z" fill="black"/>
<path d="M33.931 13.0762H30.4552V16.552H33.931V13.0762Z" fill="black"/>
<path d="M47.8345 13.0762H44.3586V16.552H47.8345V13.0762Z" fill="black"/>
<path d="M54.7862 13.0762H51.3103V16.552H54.7862V13.0762Z" fill="black"/>
<path d="M68.6897 13.0762H65.2138V16.552H68.6897V13.0762Z" fill="black"/>
<path d="M89.5448 13.0762H86.069V16.552H89.5448V13.0762Z" fill="black"/>
<path d="M110.4 13.0762H106.924V16.552H110.4V13.0762Z" fill="black"/>
<path d="M13.0759 16.5518H9.59998V20.0277H13.0759V16.5518Z" fill="black"/>
<path d="M20.0276 16.5518H16.5517V20.0277H20.0276V16.5518Z" fill="black"/>
<path d="M23.5034 16.5518H20.0276V20.0277H23.5034V16.5518Z" fill="black"/>
<path d="M26.9793 16.5518H23.5034V20.0277H26.9793V16.5518Z" fill="black"/>
<path d="M33.931 16.5518H30.4552V20.0277H33.931V16.5518Z" fill="black"/>
<path d="M47.8345 16.5518H44.3586V20.0277H47.8345V16.5518Z" fill="black"/>
<path d="M51.3103 16.5518H47.8345V20.0277H51.3103V16.5518Z" fill="black"/>
<path d="M68.6897 16.5518H65.2138V20.0277H68.6897V16.5518Z" fill="black"/>
<path d="M79.1172 16.5518H75.6414V20.0277H79.1172V16.5518Z" fill="black"/>
<path d="M89.5448 16.5518H86.069V20.0277H89.5448V16.5518Z" fill="black"/>
<path d="M96.4966 16.5518H93.0207V20.0277H96.4966V16.5518Z" fill="black"/>
<path d="M99.9724 16.5518H96.4966V20.0277H99.9724V16.5518Z" fill="black"/>
<path d="M103.448 16.5518H99.9724V20.0277H103.448V16.5518Z" fill="black"/>
<path d="M110.4 16.5518H106.924V20.0277H110.4V16.5518Z" fill="black"/>
<path d="M13.0759 20.0278H9.59998V23.5036H13.0759V20.0278Z" fill="black"/>
<path d="M20.0276 20.0278H16.5517V23.5036H20.0276V20.0278Z" fill="black"/>
<path d="M23.5034 20.0278H20.0276V23.5036H23.5034V20.0278Z" fill="black"/>
<path d="M26.9793 20.0278H23.5034V23.5036H26.9793V20.0278Z" fill="black"/>
<path d="M33.931 20.0278H30.4552V23.5036H33.931V20.0278Z" fill="black"/>
<path d="M40.8828 20.0278H37.4069V23.5036H40.8828V20.0278Z" fill="black"/>
<path d="M51.3103 20.0278H47.8345V23.5036H51.3103V20.0278Z" fill="black"/>
<path d="M61.7379 20.0278H58.2621V23.5036H61.7379V20.0278Z" fill="black"/>
<path d="M65.2138 20.0278H61.7379V23.5036H65.2138V20.0278Z" fill="black"/>
<path d="M68.6897 20.0278H65.2138V23.5036H68.6897V20.0278Z" fill="black"/>
<path d="M79.1172 20.0278H75.6414V23.5036H79.1172V20.0278Z" fill="black"/>
<path d="M82.5931 20.0278H79.1172V23.5036H82.5931V20.0278Z" fill="black"/>
<path d="M89.5448 20.0278H86.069V23.5036H89.5448V20.0278Z" fill="black"/>
<path d="M96.4966 20.0278H93.0207V23.5036H96.4966V20.0278Z" fill="black"/>
<path d="M99.9724 20.0278H96.4966V23.5036H99.9724V20.0278Z" fill="black"/>
<path d="M103.448 20.0278H99.9724V23.5036H103.448V20.0278Z" fill="black"/>
<path d="M110.4 20.0278H106.924V23.5036H110.4V20.0278Z" fill="black"/>
<path d="M13.0759 23.5034H9.59998V26.9793H13.0759V23.5034Z" fill="black"/>
<path d="M20.0276 23.5034H16.5517V26.9793H20.0276V23.5034Z" fill="black"/>
<path d="M23.5034 23.5034H20.0276V26.9793H23.5034V23.5034Z" fill="black"/>
<path d="M26.9793 23.5034H23.5034V26.9793H26.9793V23.5034Z" fill="black"/>
<path d="M33.931 23.5034H30.4552V26.9793H33.931V23.5034Z" fill="black"/>
<path d="M47.8345 23.5034H44.3586V26.9793H47.8345V23.5034Z" fill="black"/>
<path d="M54.7862 23.5034H51.3103V26.9793H54.7862V23.5034Z" fill="black"/>
<path d="M61.7379 23.5034H58.2621V26.9793H61.7379V23.5034Z" fill="black"/>
<path d="M65.2138 23.5034H61.7379V26.9793H65.2138V23.5034Z" fill="black"/>
<path d="M68.6897 23.5034H65.2138V26.9793H68.6897V23.5034Z" fill="black"/>
<path d="M79.1172 23.5034H75.6414V26.9793H79.1172V23.5034Z" fill="black"/>
<path d="M89.5448 23.5034H86.069V26.9793H89.5448V23.5034Z" fill="black"/>
<path d="M96.4966 23.5034H93.0207V26.9793H96.4966V23.5034Z" fill="black"/>
<path d="M99.9724 23.5034H96.4966V26.9793H99.9724V23.5034Z" fill="black"/>
<path d="M103.448 23.5034H99.9724V26.9793H103.448V23.5034Z" fill="black"/>
<path d="M110.4 23.5034H106.924V26.9793H110.4V23.5034Z" fill="black"/>
<path d="M13.0759 26.9795H9.59998V30.4554H13.0759V26.9795Z" fill="black"/>
<path d="M33.931 26.9795H30.4552V30.4554H33.931V26.9795Z" fill="black"/>
<path d="M40.8828 26.9795H37.4069V30.4554H40.8828V26.9795Z" fill="black"/>
<path d="M47.8345 26.9795H44.3586V30.4554H47.8345V26.9795Z" fill="black"/>
<path d="M51.3103 26.9795H47.8345V30.4554H51.3103V26.9795Z" fill="black"/>
<path d="M54.7862 26.9795H51.3103V30.4554H54.7862V26.9795Z" fill="black"/>
<path d="M58.2621 26.9795H54.7862V30.4554H58.2621V26.9795Z" fill="black"/>
<path d="M61.7379 26.9795H58.2621V30.4554H61.7379V26.9795Z" fill="black"/>
<path d="M75.6414 26.9795H72.1655V30.4554H75.6414V26.9795Z" fill="black"/>
<path d="M79.1172 26.9795H75.6414V30.4554H79.1172V26.9795Z" fill="black"/>
<path d="M82.5931 26.9795H79.1172V30.4554H82.5931V26.9795Z" fill="black"/>
<path d="M89.5448 26.9795H86.069V30.4554H89.5448V26.9795Z" fill="black"/>
<path d="M110.4 26.9795H106.924V30.4554H110.4V26.9795Z" fill="black"/>
<path d="M13.0759 30.4551H9.59998V33.9309H13.0759V30.4551Z" fill="black"/>
<path d="M16.5517 30.4551H13.0759V33.9309H16.5517V30.4551Z" fill="black"/>
<path d="M20.0276 30.4551H16.5517V33.9309H20.0276V30.4551Z" fill="black"/>
<path d="M23.5034 30.4551H20.0276V33.9309H23.5034V30.4551Z" fill="black"/>
<path d="M26.9793 30.4551H23.5034V33.9309H26.9793V30.4551Z" fill="black"/>
<path d="M30.4552 30.4551H26.9793V33.9309H30.4552V30.4551Z" fill="black"/>
<path d="M33.931 30.4551H30.4552V33.9309H33.931V30.4551Z" fill="black"/>
<path d="M40.8828 30.4551H37.4069V33.9309H40.8828V30.4551Z" fill="black"/>
<path d="M47.8345 30.4551H44.3586V33.9309H47.8345V30.4551Z" fill="black"/>
<path d="M54.7862 30.4551H51.3103V33.9309H54.7862V30.4551Z" fill="black"/>
<path d="M61.7379 30.4551H58.2621V33.9309H61.7379V30.4551Z" fill="black"/>
<path d="M68.6897 30.4551H65.2138V33.9309H68.6897V30.4551Z" fill="black"/>
<path d="M75.6414 30.4551H72.1655V33.9309H75.6414V30.4551Z" fill="black"/>
<path d="M82.5931 30.4551H79.1172V33.9309H82.5931V30.4551Z" fill="black"/>
<path d="M89.5448 30.4551H86.069V33.9309H89.5448V30.4551Z" fill="black"/>
<path d="M93.0207 30.4551H89.5448V33.9309H93.0207V30.4551Z" fill="black"/>
<path d="M96.4966 30.4551H93.0207V33.9309H96.4966V30.4551Z" fill="black"/>
<path d="M99.9724 30.4551H96.4966V33.9309H99.9724V30.4551Z" fill="black"/>
<path d="M103.448 30.4551H99.9724V33.9309H103.448V30.4551Z" fill="black"/>
<path d="M106.924 30.4551H103.448V33.9309H106.924V30.4551Z" fill="black"/>
<path d="M110.4 30.4551H106.924V33.9309H110.4V30.4551Z" fill="black"/>
<path d="M51.3103 33.9312H47.8345V37.4071H51.3103V33.9312Z" fill="black"/>
<path d="M54.7862 33.9312H51.3103V37.4071H54.7862V33.9312Z" fill="black"/>
<path d="M58.2621 33.9312H54.7862V37.4071H58.2621V33.9312Z" fill="black"/>
<path d="M75.6414 33.9312H72.1655V37.4071H75.6414V33.9312Z" fill="black"/>
<path d="M79.1172 33.9312H75.6414V37.4071H79.1172V33.9312Z" fill="black"/>
<path d="M30.4552 37.4072H26.9793V40.8831H30.4552V37.4072Z" fill="black"/>
<path d="M33.931 37.4072H30.4552V40.8831H33.931V37.4072Z" fill="black"/>
<path d="M40.8828 37.4072H37.4069V40.8831H40.8828V37.4072Z" fill="black"/>
<path d="M61.7379 37.4072H58.2621V40.8831H61.7379V37.4072Z" fill="black"/>
<path d="M65.2138 37.4072H61.7379V40.8831H65.2138V37.4072Z" fill="black"/>
<path d="M68.6897 37.4072H65.2138V40.8831H68.6897V37.4072Z" fill="black"/>
<path d="M82.5931 37.4072H79.1172V40.8831H82.5931V37.4072Z" fill="black"/>
<path d="M86.069 37.4072H82.5931V40.8831H86.069V37.4072Z" fill="black"/>
<path d="M93.0207 37.4072H89.5448V40.8831H93.0207V37.4072Z" fill="black"/>
<path d="M99.9724 37.4072H96.4966V40.8831H99.9724V37.4072Z" fill="black"/>
<path d="M110.4 37.4072H106.924V40.8831H110.4V37.4072Z" fill="black"/>
<path d="M13.0759 40.8828H9.59998V44.3586H13.0759V40.8828Z" fill="black"/>
<path d="M20.0276 40.8828H16.5517V44.3586H20.0276V40.8828Z" fill="black"/>
<path d="M23.5034 40.8828H20.0276V44.3586H23.5034V40.8828Z" fill="black"/>
<path d="M26.9793 40.8828H23.5034V44.3586H26.9793V40.8828Z" fill="black"/>
<path d="M30.4552 40.8828H26.9793V44.3586H30.4552V40.8828Z" fill="black"/>
<path d="M40.8828 40.8828H37.4069V44.3586H40.8828V40.8828Z" fill="black"/>
<path d="M47.8345 40.8828H44.3586V44.3586H47.8345V40.8828Z" fill="black"/>
<path d="M54.7862 40.8828H51.3103V44.3586H54.7862V40.8828Z" fill="black"/>
<path d="M61.7379 40.8828H58.2621V44.3586H61.7379V40.8828Z" fill="black"/>
<path d="M72.1655 40.8828H68.6897V44.3586H72.1655V40.8828Z" fill="black"/>
<path d="M79.1172 40.8828H75.6414V44.3586H79.1172V40.8828Z" fill="black"/>
<path d="M96.4966 40.8828H93.0207V44.3586H96.4966V40.8828Z" fill="black"/>
<path d="M99.9724 40.8828H96.4966V44.3586H99.9724V40.8828Z" fill="black"/>
<path d="M103.448 40.8828H99.9724V44.3586H103.448V40.8828Z" fill="black"/>
<path d="M106.924 40.8828H103.448V44.3586H106.924V40.8828Z" fill="black"/>
<path d="M13.0759 44.3589H9.59998V47.8348H13.0759V44.3589Z" fill="black"/>
<path d="M23.5034 44.3589H20.0276V47.8348H23.5034V44.3589Z" fill="black"/>
<path d="M26.9793 44.3589H23.5034V47.8348H26.9793V44.3589Z" fill="black"/>
<path d="M30.4552 44.3589H26.9793V47.8348H30.4552V44.3589Z" fill="black"/>
<path d="M33.931 44.3589H30.4552V47.8348H33.931V44.3589Z" fill="black"/>
<path d="M37.4069 44.3589H33.931V47.8348H37.4069V44.3589Z" fill="black"/>
<path d="M40.8828 44.3589H37.4069V47.8348H40.8828V44.3589Z" fill="black"/>
<path d="M47.8345 44.3589H44.3586V47.8348H47.8345V44.3589Z" fill="black"/>
<path d="M54.7862 44.3589H51.3103V47.8348H54.7862V44.3589Z" fill="black"/>
<path d="M58.2621 44.3589H54.7862V47.8348H58.2621V44.3589Z" fill="black"/>
<path d="M65.2138 44.3589H61.7379V47.8348H65.2138V44.3589Z" fill="black"/>
<path d="M68.6897 44.3589H65.2138V47.8348H68.6897V44.3589Z" fill="black"/>
<path d="M72.1655 44.3589H68.6897V47.8348H72.1655V44.3589Z" fill="black"/>
<path d="M75.6414 44.3589H72.1655V47.8348H75.6414V44.3589Z" fill="black"/>
<path d="M79.1172 44.3589H75.6414V47.8348H79.1172V44.3589Z" fill="black"/>
<path d="M89.5448 44.3589H86.069V47.8348H89.5448V44.3589Z" fill="black"/>
<path d="M106.924 44.3589H103.448V47.8348H106.924V44.3589Z" fill="black"/>
<path d="M16.5517 47.8345H13.0759V51.3103H16.5517V47.8345Z" fill="black"/>
<path d="M23.5034 47.8345H20.0276V51.3103H23.5034V47.8345Z" fill="black"/>
<path d="M30.4552 47.8345H26.9793V51.3103H30.4552V47.8345Z" fill="black"/>
<path d="M40.8828 47.8345H37.4069V51.3103H40.8828V47.8345Z" fill="black"/>
<path d="M58.2621 47.8345H54.7862V51.3103H58.2621V47.8345Z" fill="black"/>
<path d="M61.7379 47.8345H58.2621V51.3103H61.7379V47.8345Z" fill="black"/>
<path d="M68.6897 47.8345H65.2138V51.3103H68.6897V47.8345Z" fill="black"/>
<path d="M79.1172 47.8345H75.6414V51.3103H79.1172V47.8345Z" fill="black"/>
<path d="M89.5448 47.8345H86.069V51.3103H89.5448V47.8345Z" fill="black"/>
<path d="M93.0207 47.8345H89.5448V51.3103H93.0207V47.8345Z" fill="black"/>
<path d="M96.4966 47.8345H93.0207V51.3103H96.4966V47.8345Z" fill="black"/>
<path d="M13.0759 51.3105H9.59998V54.7864H13.0759V51.3105Z" fill="black"/>
<path d="M16.5517 51.3105H13.0759V54.7864H16.5517V51.3105Z" fill="black"/>
<path d="M30.4552 51.3105H26.9793V54.7864H30.4552V51.3105Z" fill="black"/>
<path d="M33.931 51.3105H30.4552V54.7864H33.931V51.3105Z" fill="black"/>
<path d="M37.4069 51.3105H33.931V54.7864H37.4069V51.3105Z" fill="black"/>
<path d="M40.8828 51.3105H37.4069V54.7864H40.8828V51.3105Z" fill="black"/>
<path d="M44.3586 51.3105H40.8828V54.7864H44.3586V51.3105Z" fill="black"/>
<path d="M47.8345 51.3105H44.3586V54.7864H47.8345V51.3105Z" fill="black"/>
<path d="M61.7379 51.3105H58.2621V54.7864H61.7379V51.3105Z" fill="black"/>
<path d="M68.6897 51.3105H65.2138V54.7864H68.6897V51.3105Z" fill="black"/>
<path d="M82.5931 51.3105H79.1172V54.7864H82.5931V51.3105Z" fill="black"/>
<path d="M86.069 51.3105H82.5931V54.7864H86.069V51.3105Z" fill="black"/>
<path d="M110.4 51.3105H106.924V54.7864H110.4V51.3105Z" fill="black"/>
<path d="M13.0759 54.7861H9.59998V58.262H13.0759V54.7861Z" fill="black"/>
<path d="M16.5517 54.7861H13.0759V58.262H16.5517V54.7861Z" fill="black"/>
<path d="M20.0276 54.7861H16.5517V58.262H20.0276V54.7861Z" fill="black"/>
<path d="M23.5034 54.7861H20.0276V58.262H23.5034V54.7861Z" fill="black"/>
<path d="M26.9793 54.7861H23.5034V58.262H26.9793V54.7861Z" fill="black"/>
<path d="M30.4552 54.7861H26.9793V58.262H30.4552V54.7861Z" fill="black"/>
<path d="M65.2138 54.7861H61.7379V58.262H65.2138V54.7861Z" fill="black"/>
<path d="M68.6897 54.7861H65.2138V58.262H68.6897V54.7861Z" fill="black"/>
<path d="M75.6414 54.7861H72.1655V58.262H75.6414V54.7861Z" fill="black"/>
<path d="M79.1172 54.7861H75.6414V58.262H79.1172V54.7861Z" fill="black"/>
<path d="M86.069 54.7861H82.5931V58.262H86.069V54.7861Z" fill="black"/>
<path d="M89.5448 54.7861H86.069V58.262H89.5448V54.7861Z" fill="black"/>
<path d="M93.0207 54.7861H89.5448V58.262H93.0207V54.7861Z" fill="black"/>
<path d="M110.4 54.7861H106.924V58.262H110.4V54.7861Z" fill="black"/>
<path d="M16.5517 58.2622H13.0759V61.738H16.5517V58.2622Z" fill="black"/>
<path d="M23.5034 58.2622H20.0276V61.738H23.5034V58.2622Z" fill="black"/>
<path d="M26.9793 58.2622H23.5034V61.738H26.9793V58.2622Z" fill="black"/>
<path d="M30.4552 58.2622H26.9793V61.738H30.4552V58.2622Z" fill="black"/>
<path d="M33.931 58.2622H30.4552V61.738H33.931V58.2622Z" fill="black"/>
<path d="M37.4069 58.2622H33.931V61.738H37.4069V58.2622Z" fill="black"/>
<path d="M44.3586 58.2622H40.8828V61.738H44.3586V58.2622Z" fill="black"/>
<path d="M51.3103 58.2622H47.8345V61.738H51.3103V58.2622Z" fill="black"/>
<path d="M65.2138 58.2622H61.7379V61.738H65.2138V58.2622Z" fill="black"/>
<path d="M68.6897 58.2622H65.2138V61.738H68.6897V58.2622Z" fill="black"/>
<path d="M82.5931 58.2622H79.1172V61.738H82.5931V58.2622Z" fill="black"/>
<path d="M89.5448 58.2622H86.069V61.738H89.5448V58.2622Z" fill="black"/>
<path d="M96.4966 58.2622H93.0207V61.738H96.4966V58.2622Z" fill="black"/>
<path d="M99.9724 58.2622H96.4966V61.738H99.9724V58.2622Z" fill="black"/>
<path d="M103.448 58.2622H99.9724V61.738H103.448V58.2622Z" fill="black"/>
<path d="M106.924 58.2622H103.448V61.738H106.924V58.2622Z" fill="black"/>
<path d="M110.4 58.2622H106.924V61.738H110.4V58.2622Z" fill="black"/>
<path d="M16.5517 61.7378H13.0759V65.2137H16.5517V61.7378Z" fill="black"/>
<path d="M23.5034 61.7378H20.0276V65.2137H23.5034V61.7378Z" fill="black"/>
<path d="M40.8828 61.7378H37.4069V65.2137H40.8828V61.7378Z" fill="black"/>
<path d="M44.3586 61.7378H40.8828V65.2137H44.3586V61.7378Z" fill="black"/>
<path d="M51.3103 61.7378H47.8345V65.2137H51.3103V61.7378Z" fill="black"/>
<path d="M58.2621 61.7378H54.7862V65.2137H58.2621V61.7378Z" fill="black"/>
<path d="M61.7379 61.7378H58.2621V65.2137H61.7379V61.7378Z" fill="black"/>
<path d="M68.6897 61.7378H65.2138V65.2137H68.6897V61.7378Z" fill="black"/>
<path d="M72.1655 61.7378H68.6897V65.2137H72.1655V61.7378Z" fill="black"/>
<path d="M82.5931 61.7378H79.1172V65.2137H82.5931V61.7378Z" fill="black"/>
<path d="M93.0207 61.7378H89.5448V65.2137H93.0207V61.7378Z" fill="black"/>
<path d="M96.4966 61.7378H93.0207V65.2137H96.4966V61.7378Z" fill="black"/>
<path d="M110.4 61.7378H106.924V65.2137H110.4V61.7378Z" fill="black"/>
<path d="M13.0759 65.2139H9.59998V68.6898H13.0759V65.2139Z" fill="black"/>
<path d="M20.0276 65.2139H16.5517V68.6898H20.0276V65.2139Z" fill="black"/>
<path d="M26.9793 65.2139H23.5034V68.6898H26.9793V65.2139Z" fill="black"/>
<path d="M33.931 65.2139H30.4552V68.6898H33.931V65.2139Z" fill="black"/>
<path d="M47.8345 65.2139H44.3586V68.6898H47.8345V65.2139Z" fill="black"/>
<path d="M54.7862 65.2139H51.3103V68.6898H54.7862V65.2139Z" fill="black"/>
<path d="M61.7379 65.2139H58.2621V68.6898H61.7379V65.2139Z" fill="black"/>
<path d="M65.2138 65.2139H61.7379V68.6898H65.2138V65.2139Z" fill="black"/>
<path d="M82.5931 65.2139H79.1172V68.6898H82.5931V65.2139Z" fill="black"/>
<path d="M89.5448 65.2139H86.069V68.6898H89.5448V65.2139Z" fill="black"/>
<path d="M93.0207 65.2139H89.5448V68.6898H93.0207V65.2139Z" fill="black"/>
<path d="M96.4966 65.2139H93.0207V68.6898H96.4966V65.2139Z" fill="black"/>
<path d="M106.924 65.2139H103.448V68.6898H106.924V65.2139Z" fill="black"/>
<path d="M16.5517 68.6899H13.0759V72.1657H16.5517V68.6899Z" fill="black"/>
<path d="M20.0276 68.6899H16.5517V72.1657H20.0276V68.6899Z" fill="black"/>
<path d="M37.4069 68.6899H33.931V72.1657H37.4069V68.6899Z" fill="black"/>
<path d="M44.3586 68.6899H40.8828V72.1657H44.3586V68.6899Z" fill="black"/>
<path d="M54.7862 68.6899H51.3103V72.1657H54.7862V68.6899Z" fill="black"/>
<path d="M58.2621 68.6899H54.7862V72.1657H58.2621V68.6899Z" fill="black"/>
<path d="M61.7379 68.6899H58.2621V72.1657H61.7379V68.6899Z" fill="black"/>
<path d="M65.2138 68.6899H61.7379V72.1657H65.2138V68.6899Z" fill="black"/>
<path d="M68.6897 68.6899H65.2138V72.1657H68.6897V68.6899Z" fill="black"/>
<path d="M72.1655 68.6899H68.6897V72.1657H72.1655V68.6899Z" fill="black"/>
<path d="M79.1172 68.6899H75.6414V72.1657H79.1172V68.6899Z" fill="black"/>
<path d="M89.5448 68.6899H86.069V72.1657H89.5448V68.6899Z" fill="black"/>
<path d="M96.4966 68.6899H93.0207V72.1657H96.4966V68.6899Z" fill="black"/>
<path d="M99.9724 68.6899H96.4966V72.1657H99.9724V68.6899Z" fill="black"/>
<path d="M106.924 68.6899H103.448V72.1657H106.924V68.6899Z" fill="black"/>
<path d="M110.4 68.6899H106.924V72.1657H110.4V68.6899Z" fill="black"/>
<path d="M13.0759 72.1655H9.59998V75.6414H13.0759V72.1655Z" fill="black"/>
<path d="M16.5517 72.1655H13.0759V75.6414H16.5517V72.1655Z" fill="black"/>
<path d="M23.5034 72.1655H20.0276V75.6414H23.5034V72.1655Z" fill="black"/>
<path d="M26.9793 72.1655H23.5034V75.6414H26.9793V72.1655Z" fill="black"/>
<path d="M33.931 72.1655H30.4552V75.6414H33.931V72.1655Z" fill="black"/>
<path d="M37.4069 72.1655H33.931V75.6414H37.4069V72.1655Z" fill="black"/>
<path d="M44.3586 72.1655H40.8828V75.6414H44.3586V72.1655Z" fill="black"/>
<path d="M51.3103 72.1655H47.8345V75.6414H51.3103V72.1655Z" fill="black"/>
<path d="M58.2621 72.1655H54.7862V75.6414H58.2621V72.1655Z" fill="black"/>
<path d="M72.1655 72.1655H68.6897V75.6414H72.1655V72.1655Z" fill="black"/>
<path d="M75.6414 72.1655H72.1655V75.6414H75.6414V72.1655Z" fill="black"/>
<path d="M79.1172 72.1655H75.6414V75.6414H79.1172V72.1655Z" fill="black"/>
<path d="M82.5931 72.1655H79.1172V75.6414H82.5931V72.1655Z" fill="black"/>
<path d="M103.448 72.1655H99.9724V75.6414H103.448V72.1655Z" fill="black"/>
<path d="M106.924 72.1655H103.448V75.6414H106.924V72.1655Z" fill="black"/>
<path d="M13.0759 75.6416H9.59998V79.1174H13.0759V75.6416Z" fill="black"/>
<path d="M20.0276 75.6416H16.5517V79.1174H20.0276V75.6416Z" fill="black"/>
<path d="M23.5034 75.6416H20.0276V79.1174H23.5034V75.6416Z" fill="black"/>
<path d="M30.4552 75.6416H26.9793V79.1174H30.4552V75.6416Z" fill="black"/>
<path d="M37.4069 75.6416H33.931V79.1174H37.4069V75.6416Z" fill="black"/>
<path d="M47.8345 75.6416H44.3586V79.1174H47.8345V75.6416Z" fill="black"/>
<path d="M54.7862 75.6416H51.3103V79.1174H54.7862V75.6416Z" fill="black"/>
<path d="M58.2621 75.6416H54.7862V79.1174H58.2621V75.6416Z" fill="black"/>
<path d="M65.2138 75.6416H61.7379V79.1174H65.2138V75.6416Z" fill="black"/>
<path d="M79.1172 75.6416H75.6414V79.1174H79.1172V75.6416Z" fill="black"/>
<path d="M99.9724 75.6416H96.4966V79.1174H99.9724V75.6416Z" fill="black"/>
<path d="M103.448 75.6416H99.9724V79.1174H103.448V75.6416Z" fill="black"/>
<path d="M106.924 75.6416H103.448V79.1174H106.924V75.6416Z" fill="black"/>
<path d="M33.931 79.1172H30.4552V82.5931H33.931V79.1172Z" fill="black"/>
<path d="M37.4069 79.1172H33.931V82.5931H37.4069V79.1172Z" fill="black"/>
<path d="M44.3586 79.1172H40.8828V82.5931H44.3586V79.1172Z" fill="black"/>
<path d="M47.8345 79.1172H44.3586V82.5931H47.8345V79.1172Z" fill="black"/>
<path d="M54.7862 79.1172H51.3103V82.5931H54.7862V79.1172Z" fill="black"/>
<path d="M58.2621 79.1172H54.7862V82.5931H58.2621V79.1172Z" fill="black"/>
<path d="M61.7379 79.1172H58.2621V82.5931H61.7379V79.1172Z" fill="black"/>
<path d="M68.6897 79.1172H65.2138V82.5931H68.6897V79.1172Z" fill="black"/>
<path d="M75.6414 79.1172H72.1655V82.5931H75.6414V79.1172Z" fill="black"/>
<path d="M82.5931 79.1172H79.1172V82.5931H82.5931V79.1172Z" fill="black"/>
<path d="M86.069 79.1172H82.5931V82.5931H86.069V79.1172Z" fill="black"/>
<path d="M89.5448 79.1172H86.069V82.5931H89.5448V79.1172Z" fill="black"/>
<path d="M93.0207 79.1172H89.5448V82.5931H93.0207V79.1172Z" fill="black"/>
<path d="M96.4966 79.1172H93.0207V82.5931H96.4966V79.1172Z" fill="black"/>
<path d="M106.924 79.1172H103.448V82.5931H106.924V79.1172Z" fill="black"/>
<path d="M110.4 79.1172H106.924V82.5931H110.4V79.1172Z" fill="black"/>
<path d="M40.8828 82.5933H37.4069V86.0692H40.8828V82.5933Z" fill="black"/>
<path d="M47.8345 82.5933H44.3586V86.0692H47.8345V82.5933Z" fill="black"/>
<path d="M51.3103 82.5933H47.8345V86.0692H51.3103V82.5933Z" fill="black"/>
<path d="M54.7862 82.5933H51.3103V86.0692H54.7862V82.5933Z" fill="black"/>
<path d="M58.2621 82.5933H54.7862V86.0692H58.2621V82.5933Z" fill="black"/>
<path d="M68.6897 82.5933H65.2138V86.0692H68.6897V82.5933Z" fill="black"/>
<path d="M72.1655 82.5933H68.6897V86.0692H72.1655V82.5933Z" fill="black"/>
<path d="M75.6414 82.5933H72.1655V86.0692H75.6414V82.5933Z" fill="black"/>
<path d="M82.5931 82.5933H79.1172V86.0692H82.5931V82.5933Z" fill="black"/>
<path d="M96.4966 82.5933H93.0207V86.0692H96.4966V82.5933Z" fill="black"/>
<path d="M110.4 82.5933H106.924V86.0692H110.4V82.5933Z" fill="black"/>
<path d="M13.0759 86.0693H9.59998V89.5451H13.0759V86.0693Z" fill="black"/>
<path d="M16.5517 86.0693H13.0759V89.5451H16.5517V86.0693Z" fill="black"/>
<path d="M20.0276 86.0693H16.5517V89.5451H20.0276V86.0693Z" fill="black"/>
<path d="M23.5034 86.0693H20.0276V89.5451H23.5034V86.0693Z" fill="black"/>
<path d="M26.9793 86.0693H23.5034V89.5451H26.9793V86.0693Z" fill="black"/>
<path d="M30.4552 86.0693H26.9793V89.5451H30.4552V86.0693Z" fill="black"/>
<path d="M33.931 86.0693H30.4552V89.5451H33.931V86.0693Z" fill="black"/>
<path d="M44.3586 86.0693H40.8828V89.5451H44.3586V86.0693Z" fill="black"/>
<path d="M54.7862 86.0693H51.3103V89.5451H54.7862V86.0693Z" fill="black"/>
<path d="M61.7379 86.0693H58.2621V89.5451H61.7379V86.0693Z" fill="black"/>
<path d="M72.1655 86.0693H68.6897V89.5451H72.1655V86.0693Z" fill="black"/>
<path d="M75.6414 86.0693H72.1655V89.5451H75.6414V86.0693Z" fill="black"/>
<path d="M82.5931 86.0693H79.1172V89.5451H82.5931V86.0693Z" fill="black"/>
<path d="M89.5448 86.0693H86.069V89.5451H89.5448V86.0693Z" fill="black"/>
<path d="M96.4966 86.0693H93.0207V89.5451H96.4966V86.0693Z" fill="black"/>
<path d="M99.9724 86.0693H96.4966V89.5451H99.9724V86.0693Z" fill="black"/>
<path d="M110.4 86.0693H106.924V89.5451H110.4V86.0693Z" fill="black"/>
<path d="M13.0759 89.5449H9.59998V93.0208H13.0759V89.5449Z" fill="black"/>
<path d="M33.931 89.5449H30.4552V93.0208H33.931V89.5449Z" fill="black"/>
<path d="M40.8828 89.5449H37.4069V93.0208H40.8828V89.5449Z" fill="black"/>
<path d="M47.8345 89.5449H44.3586V93.0208H47.8345V89.5449Z" fill="black"/>
<path d="M54.7862 89.5449H51.3103V93.0208H54.7862V89.5449Z" fill="black"/>
<path d="M61.7379 89.5449H58.2621V93.0208H61.7379V89.5449Z" fill="black"/>
<path d="M75.6414 89.5449H72.1655V93.0208H75.6414V89.5449Z" fill="black"/>
<path d="M82.5931 89.5449H79.1172V93.0208H82.5931V89.5449Z" fill="black"/>
<path d="M96.4966 89.5449H93.0207V93.0208H96.4966V89.5449Z" fill="black"/>
<path d="M110.4 89.5449H106.924V93.0208H110.4V89.5449Z" fill="black"/>
<path d="M13.0759 93.021H9.59998V96.4969H13.0759V93.021Z" fill="black"/>
<path d="M20.0276 93.021H16.5517V96.4969H20.0276V93.021Z" fill="black"/>
<path d="M23.5034 93.021H20.0276V96.4969H23.5034V93.021Z" fill="black"/>
<path d="M26.9793 93.021H23.5034V96.4969H26.9793V93.021Z" fill="black"/>
<path d="M33.931 93.021H30.4552V96.4969H33.931V93.021Z" fill="black"/>
<path d="M65.2138 93.021H61.7379V96.4969H65.2138V93.021Z" fill="black"/>
<path d="M82.5931 93.021H79.1172V96.4969H82.5931V93.021Z" fill="black"/>
<path d="M86.069 93.021H82.5931V96.4969H86.069V93.021Z" fill="black"/>
<path d="M89.5448 93.021H86.069V96.4969H89.5448V93.021Z" fill="black"/>
<path d="M93.0207 93.021H89.5448V96.4969H93.0207V93.021Z" fill="black"/>
<path d="M96.4966 93.021H93.0207V96.4969H96.4966V93.021Z" fill="black"/>
<path d="M99.9724 93.021H96.4966V96.4969H99.9724V93.021Z" fill="black"/>
<path d="M103.448 93.021H99.9724V96.4969H103.448V93.021Z" fill="black"/>
<path d="M106.924 93.021H103.448V96.4969H106.924V93.021Z" fill="black"/>
<path d="M110.4 93.021H106.924V96.4969H110.4V93.021Z" fill="black"/>
<path d="M13.0759 96.4966H9.59998V99.9724H13.0759V96.4966Z" fill="black"/>
<path d="M20.0276 96.4966H16.5517V99.9724H20.0276V96.4966Z" fill="black"/>
<path d="M23.5034 96.4966H20.0276V99.9724H23.5034V96.4966Z" fill="black"/>
<path d="M26.9793 96.4966H23.5034V99.9724H26.9793V96.4966Z" fill="black"/>
<path d="M33.931 96.4966H30.4552V99.9724H33.931V96.4966Z" fill="black"/>
<path d="M44.3586 96.4966H40.8828V99.9724H44.3586V96.4966Z" fill="black"/>
<path d="M47.8345 96.4966H44.3586V99.9724H47.8345V96.4966Z" fill="black"/>
<path d="M51.3103 96.4966H47.8345V99.9724H51.3103V96.4966Z" fill="black"/>
<path d="M54.7862 96.4966H51.3103V99.9724H54.7862V96.4966Z" fill="black"/>
<path d="M65.2138 96.4966H61.7379V99.9724H65.2138V96.4966Z" fill="black"/>
<path d="M68.6897 96.4966H65.2138V99.9724H68.6897V96.4966Z" fill="black"/>
<path d="M75.6414 96.4966H72.1655V99.9724H75.6414V96.4966Z" fill="black"/>
<path d="M96.4966 96.4966H93.0207V99.9724H96.4966V96.4966Z" fill="black"/>
<path d="M99.9724 96.4966H96.4966V99.9724H99.9724V96.4966Z" fill="black"/>
<path d="M103.448 96.4966H99.9724V99.9724H103.448V96.4966Z" fill="black"/>
<path d="M13.0759 99.9727H9.59998V103.448H13.0759V99.9727Z" fill="black"/>
<path d="M20.0276 99.9727H16.5517V103.448H20.0276V99.9727Z" fill="black"/>
<path d="M23.5034 99.9727H20.0276V103.448H23.5034V99.9727Z" fill="black"/>
<path d="M26.9793 99.9727H23.5034V103.448H26.9793V99.9727Z" fill="black"/>
<path d="M33.931 99.9727H30.4552V103.448H33.931V99.9727Z" fill="black"/>
<path d="M47.8345 99.9727H44.3586V103.448H47.8345V99.9727Z" fill="black"/>
<path d="M51.3103 99.9727H47.8345V103.448H51.3103V99.9727Z" fill="black"/>
<path d="M58.2621 99.9727H54.7862V103.448H58.2621V99.9727Z" fill="black"/>
<path d="M61.7379 99.9727H58.2621V103.448H61.7379V99.9727Z" fill="black"/>
<path d="M82.5931 99.9727H79.1172V103.448H82.5931V99.9727Z" fill="black"/>
<path d="M86.069 99.9727H82.5931V103.448H86.069V99.9727Z" fill="black"/>
<path d="M93.0207 99.9727H89.5448V103.448H93.0207V99.9727Z" fill="black"/>
<path d="M103.448 99.9727H99.9724V103.448H103.448V99.9727Z" fill="black"/>
<path d="M13.0759 103.448H9.59998V106.924H13.0759V103.448Z" fill="black"/>
<path d="M33.931 103.448H30.4552V106.924H33.931V103.448Z" fill="black"/>
<path d="M47.8345 103.448H44.3586V106.924H47.8345V103.448Z" fill="black"/>
<path d="M51.3103 103.448H47.8345V106.924H51.3103V103.448Z" fill="black"/>
<path d="M54.7862 103.448H51.3103V106.924H54.7862V103.448Z" fill="black"/>
<path d="M61.7379 103.448H58.2621V106.924H61.7379V103.448Z" fill="black"/>
<path d="M65.2138 103.448H61.7379V106.924H65.2138V103.448Z" fill="black"/>
<path d="M68.6897 103.448H65.2138V106.924H68.6897V103.448Z" fill="black"/>
<path d="M75.6414 103.448H72.1655V106.924H75.6414V103.448Z" fill="black"/>
<path d="M79.1172 103.448H75.6414V106.924H79.1172V103.448Z" fill="black"/>
<path d="M86.069 103.448H82.5931V106.924H86.069V103.448Z" fill="black"/>
<path d="M89.5448 103.448H86.069V106.924H89.5448V103.448Z" fill="black"/>
<path d="M93.0207 103.448H89.5448V106.924H93.0207V103.448Z" fill="black"/>
<path d="M99.9724 103.448H96.4966V106.924H99.9724V103.448Z" fill="black"/>
<path d="M106.924 103.448H103.448V106.924H106.924V103.448Z" fill="black"/>
<path d="M110.4 103.448H106.924V106.924H110.4V103.448Z" fill="black"/>
<path d="M13.0759 106.924H9.59998V110.4H13.0759V106.924Z" fill="black"/>
<path d="M16.5517 106.924H13.0759V110.4H16.5517V106.924Z" fill="black"/>
<path d="M20.0276 106.924H16.5517V110.4H20.0276V106.924Z" fill="black"/>
<path d="M23.5034 106.924H20.0276V110.4H23.5034V106.924Z" fill="black"/>
<path d="M26.9793 106.924H23.5034V110.4H26.9793V106.924Z" fill="black"/>
<path d="M30.4552 106.924H26.9793V110.4H30.4552V106.924Z" fill="black"/>
<path d="M33.931 106.924H30.4552V110.4H33.931V106.924Z" fill="black"/>
<path d="M44.3586 106.924H40.8828V110.4H44.3586V106.924Z" fill="black"/>
<path d="M54.7862 106.924H51.3103V110.4H54.7862V106.924Z" fill="black"/>
<path d="M61.7379 106.924H58.2621V110.4H61.7379V106.924Z" fill="black"/>
<path d="M72.1655 106.924H68.6897V110.4H72.1655V106.924Z" fill="black"/>
<path d="M75.6414 106.924H72.1655V110.4H75.6414V106.924Z" fill="black"/>
<path d="M79.1172 106.924H75.6414V110.4H79.1172V106.924Z" fill="black"/>
<path d="M86.069 106.924H82.5931V110.4H86.069V106.924Z" fill="black"/>
<path d="M96.4966 106.924H93.0207V110.4H96.4966V106.924Z" fill="black"/>
<path d="M103.448 106.924H99.9724V110.4H103.448V106.924Z" fill="black"/>
</g>
</svg>
