<svg width="25" height="24" viewBox="0 0 25 24" fill="none" xmlns="http://www.w3.org/2000/svg">
<path d="M22.1667 6V8.42C22.1667 10 21.1667 11 19.5867 11H16.1667V4.01C16.1667 2.9 17.0767 2 18.1867 2C19.2767 2.01 20.2767 2.45 20.9967 3.17C21.7167 3.9 22.1667 4.9 22.1667 6Z" stroke="#E4191D" stroke-width="1.5" stroke-miterlimit="10" stroke-linecap="round" stroke-linejoin="round"/>
<path d="M2.16666 7V21C2.16666 21.83 3.10666 22.3 3.76666 21.8L5.47666 20.52C5.87666 20.22 6.43666 20.26 6.79666 20.62L8.45666 22.29C8.84666 22.68 9.48666 22.68 9.87666 22.29L11.5567 20.61C11.9067 20.26 12.4667 20.22 12.8567 20.52L14.5667 21.8C15.2267 22.29 16.1667 21.82 16.1667 21V4C16.1667 2.9 17.0667 2 18.1667 2H7.16666H6.16666C3.16666 2 2.16666 3.79 2.16666 6V7Z" stroke="#E4191D" stroke-width="1.5" stroke-miterlimit="10" stroke-linecap="round" stroke-linejoin="round"/>
<path d="M9.16666 13.0098H12.1667" stroke="#E4191D" stroke-width="1.5" stroke-linecap="round" stroke-linejoin="round"/>
<path d="M9.16666 9.00977H12.1667" stroke="#E4191D" stroke-width="1.5" stroke-linecap="round" stroke-linejoin="round"/>
<path d="M6.16226 13H6.17124" stroke="#E4191D" stroke-width="2" stroke-linecap="round" stroke-linejoin="round"/>
<path d="M6.16226 9H6.17124" stroke="#E4191D" stroke-width="2" stroke-linecap="round" stroke-linejoin="round"/>
</svg>
