<svg width="25" height="24" viewBox="0 0 25 24" fill="none" xmlns="http://www.w3.org/2000/svg">
<path d="M2.90333 4.59988C3.70333 1.13988 8.91333 1.13988 9.70333 4.59988C10.1733 6.62988 8.88333 8.34988 7.76333 9.41988C6.94333 10.1999 5.65333 10.1899 4.83333 9.41988C3.72333 8.34988 2.43333 6.62988 2.90333 4.59988Z" stroke="#575759" stroke-width="1.5"/>
<path d="M15.9033 16.5999C16.7033 13.1399 21.9433 13.1399 22.7433 16.5999C23.2133 18.6299 21.9233 20.3499 20.7933 21.4199C19.9733 22.1999 18.6733 22.1899 17.8533 21.4199C16.7233 20.3499 15.4333 18.6299 15.9033 16.5999Z" stroke="#575759" stroke-width="1.5"/>
<path d="M12.8333 5H15.5133C17.3633 5 18.2233 7.29 16.8333 8.51L8.84333 15.5C7.45333 16.71 8.31333 19 10.1533 19H12.8333" stroke="#575759" stroke-width="1.5" stroke-linecap="round" stroke-linejoin="round"/>
<path d="M6.31954 5.5H6.3311" stroke="#575759" stroke-width="2" stroke-linecap="round" stroke-linejoin="round"/>
<path d="M19.3195 17.5H19.3311" stroke="#575759" stroke-width="2" stroke-linecap="round" stroke-linejoin="round"/>
</svg>
